<svg width="192" height="310" viewBox="0 0 192 310" fill="none" xmlns="http://www.w3.org/2000/svg">
<rect x="57.5" y="48.5" width="73" height="261" fill="#17120F" stroke="#F0F8FF"/>
<rect x="133.5" y="126.5" width="56" height="171" fill="#17120F" stroke="#F0F8FF" stroke-width="5"/>
<rect x="63.5" y="16.5" width="10" height="31" fill="#17120F" stroke="#F0F8FF"/>
<rect x="101.5" y="0.5" width="10" height="47" fill="#17120F" stroke="#F0F8FF"/>
<rect x="167.5" y="107.5" width="5" height="19" fill="#17120F" stroke="#F0F8FF"/>
<rect x="151.5" y="107.5" width="5" height="19" fill="#17120F" stroke="#F0F8FF"/>
<rect x="15.5" y="97.5" width="5" height="19" fill="#17120F" stroke="#F0F8FF"/>
<rect x="2.5" y="109.5" width="69" height="198" fill="#17120F" stroke="#F0F8FF" stroke-width="5"/>
<rect x="148" y="172" width="13" height="14" fill="#F0F8FF"/>
<rect x="80" y="95" width="19" height="20" fill="#F0F8FF"/>
<rect x="99" y="158" width="15" height="16" fill="#F0F8FF"/>
<rect x="82" y="237" width="15" height="16" fill="#F0F8FF"/>
<rect x="163" y="245" width="15" height="16" fill="#F0F8FF"/>
<rect x="42" y="204" width="15" height="16" fill="#F0F8FF"/>
<rect x="31" y="253" width="15" height="16" fill="#F0F8FF"/>
<rect x="31" y="144" width="13" height="14" fill="#F0F8FF"/>
</svg>
