<svg xmlns="http://www.w3.org/2000/svg" xmlns:xlink="http://www.w3.org/1999/xlink" width="400" height="400" viewBox="0 0 400 400"><g data-name="icon" fill="#f29770" data="id:5629976" transform="translate(19.944774826953466, 22.954978217405177) scale(6.0017621445708995)">
  <path d="M55.349,8.6A15.854,15.854,0,0,0,44.071,4h-.008A15.82,15.82,0,0,0,32.807,8.6L30,11.454,27.2,8.6A15.846,15.846,0,0,0,15.931,4h-.008A15.831,15.831,0,0,0,4.659,8.6a16.394,16.394,0,0,0,.008,22.885l22.5,22.35.011-.01a3.987,3.987,0,0,0,5.656-.007,4.035,4.035,0,0,0,1.156-3.061,3.992,3.992,0,0,0,4.282-4.27,4,4,0,0,0,4.259-4.232,4.027,4.027,0,0,0,3.125-1.163l.009.01,9.687-9.622A16.42,16.42,0,0,0,55.349,8.6ZM41.42,39.681a.938.938,0,0,0-.115-.1L32.7,30.978a1,1,0,0,0-1.414,1.414l8.669,8.669a2.005,2.005,0,0,1-2.815,2.856c-.007-.007-.008-.016-.015-.022l-8.671-8.671a1,1,0,0,0-1.414,1.414l8.612,8.612c.018.022.03.048.05.068a2.01,2.01,0,1,1-2.819,2.865.915.915,0,0,0-.071-.063L24.16,39.472a1,1,0,0,0-1.414,1.414l8.662,8.661,0,.006a2.009,2.009,0,0,1-2.821,2.86L6.086,30.078A14.383,14.383,0,0,1,6.086,10a13.82,13.82,0,0,1,9.838-4h.007a13.836,13.836,0,0,1,9.846,4l2.811,2.864L18.213,23.079a4.119,4.119,0,1,0,5.806,5.844l6.281-6.1L44.241,36.83a2.005,2.005,0,0,1-2.821,2.851Zm12.511-9.608-7.243,7.194a3.979,3.979,0,0,0-1.029-1.847l-11.8-11.857c.094,0,.186.02.281.02a8.761,8.761,0,0,0,2.1-.26h0a9.428,9.428,0,0,0,4.386-2.456,1,1,0,1,0-1.418-1.41,7.417,7.417,0,0,1-3.445,1.925h0a5.984,5.984,0,0,1-4.883-.793l-.011.016a.984.984,0,0,0-1.253.091l-6.99,6.793a2.162,2.162,0,0,1-2.993.012,2.138,2.138,0,0,1-.008-3L30.7,13.594l.009-.013,0,0L34.233,10a13.812,13.812,0,0,1,9.831-4h.007a13.843,13.843,0,0,1,9.852,4A14.406,14.406,0,0,1,53.931,30.073Z" fill="#000000"/>
  </g></svg>