<svg width="3704" height="664" viewBox="0 0 3704 664" fill="none" xmlns="http://www.w3.org/2000/svg">
<path d="M159.11 470.883V628.296C159.047 647.953 143.133 663.898 123.444 663.93H77.3059H77.3374C73.6262 663.93 70.6069 660.942 70.6069 657.231V442.017C70.6069 440.256 71.2988 438.526 72.5569 437.268C73.8149 436.01 75.5447 435.287 77.3374 435.318H123.476H123.444C143.101 435.318 159.047 451.226 159.11 470.883ZM303.439 315.137H299.917C166.907 278.214 104.67 171.283 111.876 84.8269C115.808 37.0217 141.818 4.81613 179.81 0.947431C256.896 -7.45017 289.413 41.9596 301.684 70.7997C313.918 41.9596 346.564 -7.29237 423.558 0.947431C461.551 4.97313 487.56 37.1787 491.491 84.8269C498.694 171.283 436.453 278.221 303.451 315.137H303.439ZM403.325 196.379C401.972 195.184 400.211 194.618 398.45 194.744C396.657 194.869 395.022 195.687 393.858 197.039C384.391 207.795 373.761 217.483 362.156 225.88C359.86 227.609 358.885 230.597 359.797 233.333C360.677 236.07 363.225 237.925 366.087 237.957C367.502 237.957 368.886 237.516 370.018 236.699C382.442 227.798 393.858 217.545 403.985 206.097C405.212 204.744 405.841 202.92 405.715 201.096C405.589 199.272 404.74 197.543 403.325 196.379ZM448.267 88.6915C447.89 83.6279 447.072 78.6273 445.751 73.7522C445.468 71.8651 444.399 70.1982 442.827 69.1604C441.254 68.0911 439.273 67.7765 437.448 68.2483C435.593 68.7201 434.052 69.9781 433.171 71.645C432.29 73.3434 432.165 75.3248 432.857 77.1175C433.863 81.2689 434.555 85.5151 434.932 89.7606C435.939 116.588 429.303 143.101 415.747 166.249C413.986 169.488 415.15 173.514 418.326 175.307C419.333 175.873 420.465 176.156 421.597 176.156C424.082 176.156 426.346 174.741 427.479 172.539C442.26 147.159 449.495 118.035 448.267 88.6915ZM70.8584 115.268C70.8584 113.475 70.1665 111.777 68.9084 110.519C67.6504 109.26 65.952 108.569 64.1594 108.569H6.699C3.01927 108.569 0 111.556 0 115.268C0 118.979 3.01927 121.967 6.699 121.967H63.814C65.6381 121.967 67.3993 121.243 68.6574 119.922C69.9154 118.601 70.6073 116.84 70.5445 115.016L70.8584 115.268ZM69.1915 76.3632C70.3867 75.0108 70.9842 73.2811 70.8584 71.4884C70.764 69.7271 69.9463 68.0602 68.5939 66.8651L27.9907 30.6338H28.0222C25.2545 28.1806 21.0087 28.4008 18.524 31.137C16.0708 33.9047 16.291 38.1505 19.0272 40.6352L59.6932 76.8665H59.7246C60.9198 77.9987 62.4923 78.6278 64.1592 78.6278C66.0148 78.4705 67.7131 77.5585 68.8453 76.1117L69.1915 76.3632ZM27.6769 199.558L68.2801 163.326C69.7897 162.194 70.7647 160.496 70.9534 158.609C71.1421 156.753 70.5445 154.897 69.2865 153.482C68.0285 152.067 66.2358 151.249 64.3488 151.218C62.4617 151.218 60.669 151.973 59.3795 153.356L18.7135 189.336C16.6063 191.192 15.883 194.148 16.8894 196.759C17.8958 199.401 20.4119 201.099 23.2424 201.068C24.8464 201.131 26.4504 200.596 27.6769 199.558ZM603.601 115.018C603.601 113.225 602.909 111.527 601.651 110.269C600.393 109.011 598.663 108.319 596.902 108.319H539.536C535.825 108.319 532.806 111.307 532.806 115.018C532.806 118.729 535.825 121.717 539.536 121.717H596.651C598.475 121.811 600.236 121.119 601.557 119.861C602.847 118.603 603.601 116.842 603.601 115.018ZM544.222 76.6169L584.888 40.3856C587.656 37.901 587.876 33.6551 585.391 30.8873C582.938 28.1512 578.692 27.9309 575.925 30.3841L535.321 66.6154C533.246 68.471 532.491 71.4274 533.497 74.0378C534.472 76.6483 536.988 78.378 539.787 78.378C541.328 78.3151 542.838 77.6861 543.97 76.6168L544.222 76.6169ZM585.391 199.054C586.649 197.702 587.278 195.878 587.121 194.022C586.964 192.198 586.083 190.5 584.637 189.336L543.971 153.105C541.203 150.652 536.988 150.872 534.504 153.608C533.309 154.929 532.711 156.69 532.837 158.451C532.931 160.244 533.749 161.911 535.07 163.075L575.673 199.306C576.868 200.438 578.472 201.067 580.108 201.067C581.995 201.13 583.819 200.407 585.14 199.054H585.391ZM417.826 386.596C420.027 382.884 422.543 379.393 425.374 376.185H424.273H424.305C398.609 372.6 374.109 388.137 366.435 412.92L344.043 487.049C372.851 456.887 397.666 423.113 417.826 386.596ZM523.5 400.497C516.267 381.721 498.874 368.763 478.809 367.222C458.743 365.65 439.558 375.777 429.494 393.201C406.346 433.709 360.397 505.099 310.076 528.408C298.124 534.289 285.041 537.591 271.737 538.063C261.044 538.095 251.64 531.05 248.684 520.766C244.972 509.726 248.935 497.555 258.402 490.761C277.24 476.891 293.564 459.845 306.616 440.44C330.015 406.882 321.366 373.356 300.735 357.156H300.766C292.211 350.206 281.204 346.998 270.258 348.224C259.313 349.482 249.312 355.08 242.55 363.761C222.013 388.009 189.556 425.908 168.326 450.724V450.755C171.157 456.951 172.635 463.713 172.604 470.538V628.297C172.604 633.612 171.723 638.864 169.993 643.896C192.669 650.91 216.226 654.527 239.94 654.621C384.961 654.621 481.892 513.882 520.732 444.439V444.471C528.154 430.947 529.193 414.838 523.5 400.497Z" fill="#DE4643"/>
<path d="M886.809 325.09C882.226 325.09 879.782 324.327 879.476 322.799C879.171 321.271 879.018 318.674 879.018 315.008V143.143C879.018 142.226 879.094 140.546 879.247 138.102C879.4 135.657 881.157 134.435 884.518 134.435H927.14C946.389 134.435 962.277 137.567 974.804 143.83C987.331 150.094 996.573 159.871 1002.53 173.162C1008.49 186.453 1011.47 203.792 1011.47 225.18C1011.47 244.123 1009.25 259.935 1004.82 272.614C1000.39 285.294 994.282 295.453 986.491 303.092C978.7 310.73 969.763 316.306 959.68 319.82C949.597 323.334 938.903 325.09 927.598 325.09H886.809ZM873.977 455.249V141.768C873.977 139.324 874.511 137.491 875.581 136.268C876.65 135.046 878.713 134.435 881.768 134.435H903.767C907.433 134.435 909.572 135.657 910.183 138.102L911.099 141.768V447.916C911.099 450.361 910.565 452.041 909.495 452.958C908.426 453.874 905.371 454.485 900.329 454.791C895.288 455.096 886.504 455.249 873.977 455.249ZM910.183 290.717H931.265C939.82 290.717 946.924 288.426 952.576 283.843C958.229 279.26 962.582 271.851 965.638 261.615C968.693 251.38 970.221 237.707 970.221 220.597C970.221 209.903 969.151 200.508 967.013 192.411C964.874 184.314 961.131 178.051 955.784 173.62C950.437 169.19 943.181 166.975 934.015 166.975H910.183V290.717ZM1039.88 455.249V242.137C1048.74 235.721 1058.52 230.679 1069.21 227.013C1079.91 223.347 1090.91 221.513 1102.21 221.513C1114.13 221.513 1122.45 223.117 1127.19 226.326C1131.93 229.534 1134.29 234.346 1134.29 240.762C1134.29 243.206 1133.99 246.491 1133.38 250.616C1132.77 254.74 1131.7 258.789 1130.17 262.761C1126.81 260.928 1123.29 259.553 1119.63 258.636C1115.96 257.719 1112.14 257.261 1108.17 257.261C1102.98 257.261 1097.71 258.101 1092.36 259.782C1087.01 261.462 1082.2 263.983 1077.92 267.344L1077.46 447.916C1077.46 450.361 1076.93 452.041 1075.86 452.958C1074.79 453.874 1071.66 454.485 1066.47 454.791C1061.27 455.096 1052.41 455.249 1039.88 455.249ZM1224.12 459.832C1212.51 459.832 1202.2 458.381 1193.19 455.478C1184.17 452.576 1176.61 447 1170.5 438.75C1164.39 430.501 1159.81 418.508 1156.75 402.773C1153.7 387.038 1152.17 366.338 1152.17 340.673C1152.17 298.814 1158.89 268.49 1172.33 249.699C1185.78 230.909 1204.42 221.513 1228.25 221.513C1244.44 221.513 1257.81 224.874 1268.35 231.596C1278.89 238.318 1286.76 250.234 1291.95 267.344C1297.15 284.454 1299.74 308.439 1299.74 339.298C1299.74 382.073 1293.33 412.856 1280.49 431.646C1267.66 450.437 1248.87 459.832 1224.12 459.832ZM1225.04 428.209C1231.76 428.209 1237.64 425.841 1242.68 421.105C1247.72 416.37 1251.77 407.585 1254.83 394.753C1257.88 381.92 1259.41 363.588 1259.41 339.756C1259.41 315.313 1258.19 296.905 1255.75 284.53C1253.3 272.156 1249.79 263.83 1245.2 259.553C1240.62 255.275 1234.51 253.136 1226.87 253.136C1220.15 253.136 1214.19 255.504 1209 260.24C1203.8 264.976 1199.76 273.76 1196.85 286.593C1193.95 299.425 1192.5 317.757 1192.5 341.589C1192.5 360.227 1193.26 375.351 1194.79 386.962C1196.32 398.572 1198.38 407.356 1200.98 413.314C1203.57 419.272 1207.01 423.244 1211.29 425.23C1215.57 427.216 1220.15 428.209 1225.04 428.209ZM1313.95 545.077C1296.84 545.077 1284.47 542.862 1276.83 538.432C1269.19 534.001 1265.37 528.12 1265.37 520.787C1265.37 517.426 1265.75 514.065 1266.52 510.704C1267.28 507.343 1268.58 504.288 1270.41 501.538C1275.61 504.288 1281.41 506.503 1287.83 508.183C1294.24 509.864 1301.42 510.704 1309.37 510.704C1317.31 510.704 1323.19 509.176 1327.01 506.121C1330.83 503.066 1333.43 498.254 1334.8 491.684C1336.18 485.115 1336.87 476.484 1336.87 465.79V243.054C1336.87 237.248 1337.86 233.2 1339.84 230.909C1341.83 228.617 1345.5 227.242 1350.84 226.784C1356.19 226.325 1363.91 226.096 1373.99 226.096V471.748C1373.99 485.192 1372.38 497.413 1369.18 508.413C1365.97 519.412 1360.09 528.273 1351.53 534.994C1342.98 541.716 1330.45 545.077 1313.95 545.077ZM1353.36 194.473C1347.56 194.168 1342.98 191.953 1339.62 187.828C1336.25 183.703 1334.57 176.294 1334.57 165.6C1334.88 157.35 1336.71 150.705 1340.07 145.664C1343.43 140.622 1348.78 138.102 1356.11 138.102C1363.14 138.102 1368.03 140.088 1370.78 144.06C1373.53 148.032 1374.75 154.906 1374.45 164.683C1374.45 173.85 1372.69 181.106 1369.18 186.453C1365.66 191.8 1360.39 194.473 1353.36 194.473ZM1483.06 459.832C1472.68 459.832 1462.98 458.381 1453.96 455.478C1444.95 452.576 1437.16 447.305 1430.59 439.667C1424.02 432.028 1418.98 421.182 1415.46 407.127C1411.95 393.072 1410.19 374.893 1410.19 352.589C1410.19 323.868 1412.49 300.8 1417.07 283.385C1421.65 265.969 1427.76 252.831 1435.4 243.97C1443.04 235.11 1451.75 229.152 1461.52 226.096C1471.3 223.041 1481.23 221.513 1491.31 221.513C1510.56 221.513 1525.08 227.624 1534.85 239.846C1544.63 252.067 1549.52 270.552 1549.52 295.301C1549.52 305.383 1549.14 315.771 1548.37 326.465C1547.61 337.159 1546.16 346.631 1544.02 354.88C1533.63 357.019 1522.02 358.547 1509.19 359.463C1496.36 360.38 1484.13 361.067 1472.52 361.526C1460.91 361.984 1451.37 362.213 1443.88 362.213H1432.65L1433.11 331.965L1441.82 332.194C1441.82 332.194 1448.92 332.194 1463.13 332.194C1477.34 332.194 1485.89 331.736 1488.79 330.819C1491.7 329.903 1499.11 328.604 1511.02 326.924C1511.94 322.646 1512.55 318.063 1512.85 313.174C1513.16 308.286 1513.31 303.703 1513.31 299.425C1513.01 282.926 1511.1 271.239 1507.58 264.365C1504.07 257.49 1497.27 254.053 1487.19 254.053C1482 254.053 1477.03 255.504 1472.29 258.407C1467.56 261.309 1463.36 266.351 1459.69 273.531C1456.02 280.711 1453.2 290.565 1451.21 303.092C1449.23 315.619 1448.23 331.659 1448.23 351.214C1448.23 365.574 1449.07 377.49 1450.75 386.962C1452.43 396.433 1455.03 403.766 1458.55 408.96C1462.06 414.154 1466.49 417.897 1471.84 420.189C1477.18 422.48 1483.68 423.626 1491.31 423.626C1500.48 423.626 1509.57 422.404 1518.58 419.96C1527.6 417.515 1535.77 414.002 1543.1 409.419C1544.63 413.085 1545.62 417.286 1546.08 422.022C1546.54 426.758 1546.77 430.959 1546.77 434.625C1546.77 439.208 1543.87 443.486 1538.06 447.458C1532.26 451.43 1524.54 454.485 1514.92 456.624C1505.29 458.763 1494.68 459.832 1483.06 459.832ZM1643.93 459.832C1632.63 459.832 1622.77 458.381 1614.37 455.478C1605.97 452.576 1598.86 447.076 1593.06 438.979C1587.25 430.883 1582.9 419.349 1580 404.377C1577.09 389.406 1575.64 369.852 1575.64 345.714C1575.64 318.216 1578.09 296.217 1582.98 279.718C1587.86 263.219 1594.36 250.768 1602.45 242.366C1610.55 233.964 1619.41 228.388 1629.04 225.638C1638.66 222.888 1648.21 221.513 1657.68 221.513C1668.37 221.513 1677.39 223.423 1684.72 227.242C1692.05 231.061 1695.72 236.026 1695.72 242.137C1695.72 244.581 1695.49 247.637 1695.03 251.303C1694.57 254.97 1693.58 258.789 1692.05 262.761C1688.39 260.622 1683.65 258.712 1677.84 257.032C1672.04 255.352 1665.93 254.511 1659.51 254.511C1654.32 254.511 1649.05 255.504 1643.7 257.49C1638.35 259.476 1633.39 263.525 1628.81 269.635C1624.22 275.746 1620.63 284.912 1618.04 297.134C1615.44 309.355 1614.14 325.549 1614.14 345.714C1614.14 361.908 1614.98 375.275 1616.66 385.816C1618.34 396.357 1620.86 404.606 1624.22 410.564C1627.58 416.522 1631.86 420.723 1637.06 423.168C1642.25 425.612 1648.21 426.834 1654.93 426.834C1662.26 426.834 1669.21 425.688 1675.78 423.397C1682.35 421.105 1687.62 418.737 1691.59 416.293C1692.82 420.265 1693.66 423.855 1694.11 427.063C1694.57 430.272 1694.8 433.403 1694.8 436.459C1694.8 442.875 1690.07 448.375 1680.59 452.958C1671.12 457.541 1658.9 459.832 1643.93 459.832ZM1787.84 459.832C1775.01 459.832 1765.46 457.006 1759.19 451.354C1752.93 445.701 1748.88 437.757 1747.05 427.522C1745.22 417.286 1744.3 405.294 1744.3 391.545V258.178H1713.13C1713.13 248.401 1713.21 241.297 1713.36 236.867C1713.52 232.436 1714.2 229.534 1715.43 228.159C1716.65 226.784 1718.48 226.096 1720.93 226.096H1744.3V156.434C1744.3 151.851 1745.29 148.719 1747.28 147.039C1749.26 145.358 1752.93 144.365 1758.28 144.06C1763.62 143.754 1771.34 143.601 1781.42 143.601V226.096H1828.17C1828.17 235.568 1828.09 242.595 1827.94 247.178C1827.79 251.761 1827.18 254.74 1826.11 256.115C1825.04 257.49 1823.28 258.178 1820.84 258.178H1781.42V391.545C1781.42 397.961 1781.65 403.995 1782.11 409.648C1782.57 415.3 1783.94 419.73 1786.23 422.939C1788.53 426.147 1792.42 427.751 1797.92 427.751C1803.12 427.751 1807.7 427.216 1811.67 426.147C1815.64 425.077 1819.92 423.321 1824.5 420.876C1825.11 423.321 1825.72 426.07 1826.34 429.126C1826.95 432.181 1827.25 435.695 1827.25 439.667C1827.25 445.166 1825.19 449.368 1821.07 452.27C1816.94 455.173 1811.9 457.159 1805.94 458.228C1799.98 459.298 1793.95 459.832 1787.84 459.832ZM2040.36 455.249V141.768C2040.36 139.324 2040.9 137.643 2041.97 136.727C2043.04 135.81 2046.09 135.199 2051.13 134.894C2056.18 134.588 2064.96 134.435 2077.49 134.435V447.916C2077.49 450.361 2077.03 452.041 2076.11 452.958C2075.2 453.874 2072.14 454.485 2066.95 454.791C2061.75 455.096 2052.89 455.249 2040.36 455.249ZM1930.37 455.249V141.768C1930.37 139.324 1930.83 137.643 1931.75 136.727C1932.66 135.81 1935.72 135.199 1940.91 134.894C1946.11 134.588 1954.97 134.435 1967.49 134.435V447.916C1967.49 450.361 1967.04 452.041 1966.12 452.958C1965.2 453.874 1962.15 454.485 1956.95 454.791C1951.76 455.096 1942.9 455.249 1930.37 455.249ZM1948.7 299.884V265.052H2057.32V299.884H1948.7ZM2184.27 459.832C2173.88 459.832 2164.18 458.381 2155.17 455.478C2146.16 452.576 2138.37 447.305 2131.8 439.667C2125.23 432.028 2120.19 421.182 2116.67 407.127C2113.16 393.072 2111.4 374.893 2111.4 352.589C2111.4 323.868 2113.69 300.8 2118.28 283.385C2122.86 265.969 2128.97 252.831 2136.61 243.97C2144.25 235.11 2152.95 229.152 2162.73 226.096C2172.51 223.041 2182.44 221.513 2192.52 221.513C2211.77 221.513 2226.28 227.624 2236.06 239.846C2245.84 252.067 2250.73 270.552 2250.73 295.301C2250.73 305.383 2250.34 315.771 2249.58 326.465C2248.82 337.159 2247.37 346.631 2245.23 354.88C2234.84 357.019 2223.23 358.547 2210.4 359.463C2197.56 360.38 2185.34 361.067 2173.73 361.526C2162.12 361.984 2152.57 362.213 2145.09 362.213H2133.86L2134.32 331.965L2143.03 332.194C2143.03 332.194 2150.13 332.194 2164.34 332.194C2178.54 332.194 2187.1 331.736 2190 330.819C2192.9 329.903 2200.31 328.604 2212.23 326.924C2213.15 322.646 2213.76 318.063 2214.06 313.174C2214.37 308.286 2214.52 303.703 2214.52 299.425C2214.22 282.926 2212.31 271.239 2208.79 264.365C2205.28 257.49 2198.48 254.053 2188.4 254.053C2183.2 254.053 2178.24 255.504 2173.5 258.407C2168.77 261.309 2164.57 266.351 2160.9 273.531C2157.23 280.711 2154.41 290.565 2152.42 303.092C2150.43 315.619 2149.44 331.659 2149.44 351.214C2149.44 365.574 2150.28 377.49 2151.96 386.962C2153.64 396.433 2156.24 403.766 2159.75 408.96C2163.27 414.154 2167.7 417.897 2173.04 420.189C2178.39 422.48 2184.88 423.626 2192.52 423.626C2201.69 423.626 2210.78 422.404 2219.79 419.96C2228.8 417.515 2236.98 414.002 2244.31 409.419C2245.84 413.085 2246.83 417.286 2247.29 422.022C2247.75 426.758 2247.98 430.959 2247.98 434.625C2247.98 439.208 2245.07 443.486 2239.27 447.458C2233.46 451.43 2225.75 454.485 2216.12 456.624C2206.5 458.763 2195.88 459.832 2184.27 459.832ZM2283.72 455.249V135.352C2283.72 129.547 2284.72 125.498 2286.7 123.207C2288.69 120.915 2292.43 119.54 2297.93 119.082C2303.43 118.624 2311.07 118.395 2320.85 118.395V447.916C2320.85 450.361 2320.31 452.041 2319.24 452.958C2318.17 453.874 2315.12 454.485 2310.08 454.791C2305.04 455.096 2296.25 455.249 2283.72 455.249ZM2380.89 545.535C2374.47 545.535 2369.89 544.39 2367.14 542.098C2364.39 539.807 2363.01 535.605 2363.01 529.495V239.846C2372.18 234.04 2382.57 229.534 2394.18 226.326C2405.79 223.117 2417.7 221.513 2429.92 221.513C2445.2 221.513 2458.42 224.187 2469.57 229.534C2480.72 234.881 2489.35 244.505 2495.46 258.407C2501.57 272.309 2504.63 291.787 2504.63 316.841C2504.63 341.284 2503.25 361.984 2500.5 378.941C2497.75 395.899 2494.09 409.724 2489.5 420.418C2484.92 431.112 2479.65 439.285 2473.69 444.937C2467.73 450.59 2461.62 454.485 2455.36 456.624C2449.1 458.763 2442.76 459.832 2436.34 459.832C2428.09 459.832 2420.83 458.61 2414.57 456.166C2408.31 453.721 2403.5 450.666 2400.13 447V542.327C2397.08 543.244 2393.87 544.008 2390.51 544.619C2387.15 545.23 2383.94 545.535 2380.89 545.535ZM2424.88 426.376C2428.55 426.376 2432.52 425.307 2436.8 423.168C2441.08 421.029 2445.28 416.446 2449.4 409.419C2453.53 402.391 2456.89 391.85 2459.49 377.796C2462.08 363.741 2463.38 344.797 2463.38 320.966C2463.38 302.633 2462.08 288.655 2459.49 279.031C2456.89 269.406 2452.99 262.837 2447.8 259.324C2442.6 255.81 2436.04 254.053 2428.09 254.053C2417.7 254.053 2408.38 256.956 2400.13 262.761V411.252C2403.5 416.751 2407.31 420.647 2411.59 422.939C2415.87 425.23 2420.3 426.376 2424.88 426.376ZM2538.08 455.249V243.054C2538.08 237.248 2539.15 233.2 2541.29 230.909C2543.43 228.617 2547.25 227.242 2552.75 226.784C2558.25 226.325 2566.04 226.096 2576.12 226.096V447.916C2576.12 450.361 2575.59 452.041 2574.52 452.958C2573.45 453.874 2570.32 454.485 2565.12 454.791C2559.93 455.096 2550.92 455.249 2538.08 455.249ZM2555.96 194.473C2550.15 194.168 2545.57 191.953 2542.21 187.828C2538.85 183.703 2537.17 176.294 2537.17 165.6C2537.47 157.35 2539.31 150.705 2542.67 145.664C2546.03 140.622 2551.38 138.102 2558.71 138.102C2565.74 138.102 2570.62 140.088 2573.37 144.06C2576.12 148.032 2577.35 154.906 2577.04 164.683C2577.04 173.85 2575.28 181.106 2571.77 186.453C2568.26 191.8 2562.99 194.473 2555.96 194.473ZM2617.83 455.249V237.096C2623.94 234.346 2631.12 231.825 2639.37 229.534C2647.62 227.242 2656.17 225.332 2665.04 223.805C2673.9 222.277 2682.45 221.513 2690.7 221.513C2706.59 221.513 2719.27 223.576 2728.74 227.7C2738.21 231.825 2744.93 238.318 2748.91 247.178C2752.88 256.039 2754.86 267.955 2754.86 282.926V447.916C2754.86 450.361 2754.25 452.041 2753.03 452.958C2751.81 453.874 2748.6 454.485 2743.41 454.791C2738.21 455.096 2729.2 455.249 2716.37 455.249V293.926C2716.37 279.565 2714.69 269.33 2711.32 263.219C2707.96 257.108 2700.63 254.053 2689.33 254.053C2684.13 254.053 2678.33 254.664 2671.91 255.886C2665.49 257.108 2659.84 259.247 2654.95 262.302V447.916C2654.95 450.361 2654.42 452.041 2653.35 452.958C2652.28 453.874 2649.15 454.485 2643.95 454.791C2638.76 455.096 2630.05 455.249 2617.83 455.249ZM2856.15 545.535C2835.68 545.535 2820.1 542.938 2809.4 537.744C2798.71 532.55 2791.53 526.134 2787.86 518.495C2784.19 510.857 2782.36 503.218 2782.36 495.58C2782.36 484.886 2785.42 475.033 2791.53 466.019C2797.64 457.006 2805.35 449.062 2814.67 442.187C2823.99 435.313 2833.84 430.348 2844.23 427.293L2857.98 438.292C2852.18 440.736 2846.37 444.555 2840.57 449.749C2834.76 454.944 2830.03 460.749 2826.36 467.165C2822.69 473.581 2820.86 480.15 2820.86 486.872C2820.86 491.455 2821.85 495.656 2823.84 499.476C2825.82 503.295 2829.64 506.197 2835.3 508.183C2840.95 510.169 2848.97 511.162 2859.36 511.162C2875.86 511.162 2887.77 507.267 2895.1 499.476C2902.44 491.684 2906.1 483.817 2906.1 475.873C2906.1 468.846 2904.58 463.422 2901.52 459.603C2898.47 455.784 2893.2 452.881 2885.71 450.895C2878.22 448.909 2867.76 447.458 2854.32 446.541C2841.48 445.319 2830.18 443.486 2820.4 441.042C2810.62 438.597 2802.99 435.236 2797.49 430.959C2791.99 426.681 2789.24 421.487 2789.24 415.377C2789.54 410.488 2791.22 405.37 2794.28 400.023C2797.33 394.676 2801.69 389.177 2807.34 383.524C2812.99 377.872 2819.64 372.449 2827.28 367.254L2850.19 375.046C2848.36 376.268 2845.76 378.483 2842.4 381.691C2839.04 384.899 2835.98 388.413 2833.23 392.232C2830.48 396.051 2829.11 399.641 2829.11 403.002C2829.11 406.974 2834.3 409.877 2844.69 411.71C2855.08 413.543 2867.91 415.377 2883.19 417.21C2895.1 419.043 2905.65 421.869 2914.81 425.688C2923.98 429.508 2931.08 434.931 2936.12 441.958C2941.16 448.986 2943.69 458.61 2943.69 470.832C2943.69 483.97 2940.63 496.268 2934.52 507.725C2928.41 519.183 2918.94 528.349 2906.1 535.223C2893.27 542.098 2876.62 545.535 2856.15 545.535ZM2861.65 384.67C2843.32 384.67 2828.96 381.156 2818.57 374.129C2808.18 367.102 2800.85 357.554 2796.57 345.485C2792.29 333.416 2790.15 320.049 2790.15 305.383C2790.15 285.218 2793.36 268.948 2799.78 256.574C2806.19 244.199 2815.21 235.262 2826.82 229.763C2838.43 224.263 2851.72 221.513 2866.69 221.513C2870.05 221.513 2874.25 221.972 2879.29 222.888C2884.33 223.805 2888.99 225.027 2893.27 226.555L2901.06 243.054C2911.76 247.331 2920.24 254.511 2926.5 264.594C2932.76 274.677 2935.89 287.968 2935.89 304.467C2935.89 320.66 2933.37 334.715 2928.33 346.631C2923.29 358.547 2915.35 367.866 2904.5 374.587C2893.65 381.309 2879.37 384.67 2861.65 384.67ZM2863.48 356.255C2871.73 356.255 2878.38 353.964 2883.42 349.381C2888.46 344.797 2892.2 337.999 2894.65 328.986C2897.09 319.973 2898.31 308.897 2898.31 295.759C2898.31 278.954 2895.56 266.962 2890.06 259.782C2884.56 252.602 2876.16 249.012 2864.86 249.012C2858.44 249.012 2852.48 250.768 2846.98 254.282C2841.48 257.796 2837.21 263.601 2834.15 271.698C2831.09 279.794 2829.57 290.717 2829.57 304.467C2829.57 315.16 2830.41 324.403 2832.09 332.194C2833.77 339.985 2837.05 345.943 2841.94 350.068C2846.83 354.193 2854.01 356.255 2863.48 356.255ZM2934.98 257.261C2930.39 257.261 2924.89 256.421 2918.48 254.74C2912.06 253.06 2905.65 251.227 2899.23 249.241C2892.81 247.255 2887.54 245.498 2883.42 243.97L2877.23 241.679L2873.11 225.18H2944.14C2945.06 226.707 2945.9 228.923 2946.66 231.825C2947.43 234.728 2947.81 238.318 2947.81 242.595C2947.81 247.789 2946.66 251.532 2944.37 253.824C2942.08 256.115 2938.95 257.261 2934.98 257.261ZM3154.96 455.249V141.768C3154.96 139.324 3155.5 137.643 3156.57 136.727C3157.64 135.81 3160.69 135.199 3165.73 134.894C3170.78 134.588 3179.56 134.435 3192.09 134.435V447.916C3192.09 450.361 3191.63 452.041 3190.71 452.958C3189.8 453.874 3186.74 454.485 3181.55 454.791C3176.35 455.096 3167.49 455.249 3154.96 455.249ZM3044.97 455.249V141.768C3044.97 139.324 3045.43 137.643 3046.35 136.727C3047.26 135.81 3050.32 135.199 3055.51 134.894C3060.71 134.588 3069.57 134.435 3082.09 134.435V447.916C3082.09 450.361 3081.64 452.041 3080.72 452.958C3079.8 453.874 3076.75 454.485 3071.55 454.791C3066.36 455.096 3057.5 455.249 3044.97 455.249ZM3063.3 299.884V265.052H3171.92V299.884H3063.3ZM3291.08 459.832C3282.53 459.832 3274.35 459.145 3266.56 457.77C3258.77 456.395 3251.82 453.34 3245.71 448.604C3239.6 443.868 3234.71 436.917 3231.04 427.751C3227.38 418.585 3225.54 406.058 3225.54 390.17C3225.54 374.282 3227.22 361.373 3230.58 351.443C3233.95 341.513 3238.53 333.875 3244.33 328.528C3250.14 323.181 3256.71 319.591 3264.04 317.757C3271.37 315.924 3278.86 315.008 3286.5 315.008C3291.39 315.008 3297.12 315.466 3303.68 316.383C3310.25 317.299 3315.83 318.827 3320.41 320.966V314.549V299.654V284.759C3320.41 277.427 3319.27 271.851 3316.98 268.031C3314.68 264.212 3311.48 261.462 3307.35 259.782C3303.23 258.101 3298.11 257.261 3292 257.261C3280.08 257.261 3268.62 258.331 3257.62 260.469C3246.63 262.608 3237.76 265.052 3231.04 267.802C3228.9 264.136 3227.53 260.393 3226.92 256.574C3226.31 252.754 3226 249.317 3226 246.262C3226 244.123 3226.38 241.832 3227.15 239.387C3227.91 236.943 3229.21 235.11 3231.04 233.888C3235.01 231.443 3243.26 228.77 3255.79 225.867C3268.32 222.965 3283.29 221.513 3300.71 221.513C3320.57 221.513 3335 225.638 3344.02 233.888C3353.03 242.137 3357.54 256.65 3357.54 277.427V301.717C3357.54 319.132 3357.46 336.624 3357.31 354.193C3357.15 371.761 3356.92 388.26 3356.62 403.69C3356.31 419.119 3355.7 432.639 3354.79 444.25C3348.67 447.916 3340.27 451.43 3329.58 454.791C3318.88 458.152 3306.05 459.832 3291.08 459.832ZM3294.75 428.667C3299.64 428.667 3304.37 427.904 3308.95 426.376C3313.54 424.848 3316.75 423.015 3318.58 420.876C3319.19 415.988 3319.57 409.266 3319.72 400.711C3319.88 392.156 3320.03 383.142 3320.18 373.671C3320.34 364.199 3320.41 355.339 3320.41 347.089C3317.36 345.561 3313.77 344.492 3309.64 343.881C3305.52 343.27 3301.93 342.964 3298.87 342.964C3293.98 342.964 3289.48 343.499 3285.35 344.568C3281.23 345.638 3277.64 347.777 3274.58 350.985C3271.53 354.193 3269.08 358.852 3267.25 364.963C3265.42 371.074 3264.5 379.17 3264.5 389.253C3264.5 397.503 3265.19 404.224 3266.56 409.419C3267.94 414.613 3270 418.661 3272.75 421.564C3275.5 424.466 3278.71 426.376 3282.37 427.293C3286.04 428.209 3290.16 428.667 3294.75 428.667ZM3395.12 455.249V237.096C3401.23 234.346 3408.41 231.825 3416.66 229.534C3424.91 227.242 3433.46 225.332 3442.32 223.805C3451.18 222.277 3459.74 221.513 3467.99 221.513C3483.87 221.513 3496.55 223.576 3506.03 227.7C3515.5 231.825 3522.22 238.318 3526.19 247.178C3530.16 256.039 3532.15 267.955 3532.15 282.926V447.916C3532.15 450.361 3531.54 452.041 3530.32 452.958C3529.09 453.874 3525.89 454.485 3520.69 454.791C3515.5 455.096 3506.48 455.249 3493.65 455.249V293.926C3493.65 279.565 3491.97 269.33 3488.61 263.219C3485.25 257.108 3477.92 254.053 3466.61 254.053C3461.42 254.053 3455.61 254.664 3449.2 255.886C3442.78 257.108 3437.13 259.247 3432.24 262.302V447.916C3432.24 450.361 3431.7 452.041 3430.63 452.958C3429.57 453.874 3426.43 454.485 3421.24 454.791C3416.05 455.096 3407.34 455.249 3395.12 455.249ZM3638.02 459.832C3627.94 459.832 3618.46 458.686 3609.6 456.395C3600.74 454.103 3592.8 449.215 3585.77 441.729C3578.74 434.243 3573.32 423.091 3569.5 408.273C3565.68 393.454 3563.77 373.671 3563.77 348.922C3563.77 318.674 3566.9 294.155 3573.17 275.364C3579.43 256.574 3587.83 242.901 3598.37 234.346C3608.92 225.791 3620.76 221.513 3633.89 221.513C3640.92 221.513 3647.18 222.277 3652.68 223.805C3658.18 225.332 3662.77 227.624 3666.43 230.679V135.352C3666.43 129.547 3667.43 125.498 3669.41 123.207C3671.4 120.915 3675.14 119.54 3680.64 119.082C3686.14 118.624 3693.78 118.395 3703.56 118.395V446.083C3696.22 449.75 3686.98 452.958 3675.83 455.707C3664.68 458.457 3652.07 459.832 3638.02 459.832ZM3639.39 426.376C3644.59 426.376 3649.48 425.841 3654.06 424.772C3658.64 423.702 3662.77 421.946 3666.43 419.501V260.011C3663.68 257.567 3660.7 255.963 3657.5 255.199C3654.29 254.435 3650.24 254.053 3645.35 254.053C3640.46 254.053 3635.57 255.275 3630.69 257.719C3625.8 260.164 3621.37 264.67 3617.39 271.239C3613.42 277.809 3610.37 286.975 3608.23 298.738C3606.09 310.501 3605.02 325.854 3605.02 344.798C3605.02 362.213 3605.78 376.268 3607.31 386.962C3608.84 397.655 3611.13 405.829 3614.19 411.481C3617.24 417.133 3620.83 421.029 3624.96 423.168C3629.08 425.307 3633.89 426.376 3639.39 426.376Z" fill="#DE4643"/>
</svg>
