<svg xmlns="http://www.w3.org/2000/svg" xmlns:xlink="http://www.w3.org/1999/xlink" width="400" height="400" viewBox="0 0 400 400">
<rect data-name="background" width="100%" height="100%" fill="#ffffff"></rect><g data-name="container" data="container_num:7" fill="#f29770" transform="translate(12.326500945863927, 141.24951004847634) scale(0.5749986610889848)"><path xmlns="http://www.w3.org/2000/svg" d="M102.174 199.588c53.8 0 97.413-43.613 97.413-97.413S155.974 4.762 102.174 4.762 4.761 48.375 4.761 102.175s43.614 97.413 97.413 97.413zm0-189.826c50.957 0 92.413 41.457 92.413 92.413s-41.456 92.413-92.413 92.413c-50.957 0-92.413-41.457-92.413-92.413S51.218 9.762 102.174 9.762z"></path><path xmlns="http://www.w3.org/2000/svg" d="M102.174 191.585c49.38 0 89.41-40.03 89.41-89.41s-40.03-89.41-89.41-89.41c-49.38 0-89.41 40.03-89.41 89.41s40.03 89.41 89.41 89.41zm0-176.82c48.198 0 87.41 39.212 87.41 87.41s-39.212 87.41-87.41 87.41c-48.198 0-87.41-39.212-87.41-87.41s39.212-87.41 87.41-87.41z"></path><path xmlns="http://www.w3.org/2000/svg" d="M102.174 204.35c56.339 0 102.174-45.835 102.174-102.175S158.513 0 102.174 0C45.835 0 0 45.835 0 102.175S45.835 204.35 102.174 204.35zm0-202.35c55.236 0 100.174 44.938 100.174 100.175S157.411 202.35 102.174 202.35C46.938 202.35 2 157.411 2 102.175S46.938 2 102.174 2z"></path></g><g data-name="icon" fill="#f29770" data="id:5629976" transform="translate(35.815652139227495, 165.3287332384136) scale(1.1753433915218143)">
  <path d="M55.349,8.6A15.854,15.854,0,0,0,44.071,4h-.008A15.82,15.82,0,0,0,32.807,8.6L30,11.454,27.2,8.6A15.846,15.846,0,0,0,15.931,4h-.008A15.831,15.831,0,0,0,4.659,8.6a16.394,16.394,0,0,0,.008,22.885l22.5,22.35.011-.01a3.987,3.987,0,0,0,5.656-.007,4.035,4.035,0,0,0,1.156-3.061,3.992,3.992,0,0,0,4.282-4.27,4,4,0,0,0,4.259-4.232,4.027,4.027,0,0,0,3.125-1.163l.009.01,9.687-9.622A16.42,16.42,0,0,0,55.349,8.6ZM41.42,39.681a.938.938,0,0,0-.115-.1L32.7,30.978a1,1,0,0,0-1.414,1.414l8.669,8.669a2.005,2.005,0,0,1-2.815,2.856c-.007-.007-.008-.016-.015-.022l-8.671-8.671a1,1,0,0,0-1.414,1.414l8.612,8.612c.018.022.03.048.05.068a2.01,2.01,0,1,1-2.819,2.865.915.915,0,0,0-.071-.063L24.16,39.472a1,1,0,0,0-1.414,1.414l8.662,8.661,0,.006a2.009,2.009,0,0,1-2.821,2.86L6.086,30.078A14.383,14.383,0,0,1,6.086,10a13.82,13.82,0,0,1,9.838-4h.007a13.836,13.836,0,0,1,9.846,4l2.811,2.864L18.213,23.079a4.119,4.119,0,1,0,5.806,5.844l6.281-6.1L44.241,36.83a2.005,2.005,0,0,1-2.821,2.851Zm12.511-9.608-7.243,7.194a3.979,3.979,0,0,0-1.029-1.847l-11.8-11.857c.094,0,.186.02.281.02a8.761,8.761,0,0,0,2.1-.26h0a9.428,9.428,0,0,0,4.386-2.456,1,1,0,1,0-1.418-1.41,7.417,7.417,0,0,1-3.445,1.925h0a5.984,5.984,0,0,1-4.883-.793l-.011.016a.984.984,0,0,0-1.253.091l-6.99,6.793a2.162,2.162,0,0,1-2.993.012,2.138,2.138,0,0,1-.008-3L30.7,13.594l.009-.013,0,0L34.233,10a13.812,13.812,0,0,1,9.831-4h.007a13.843,13.843,0,0,1,9.852,4A14.406,14.406,0,0,1,53.931,30.073Z"></path>
  </g><g data-name="business_name" fill="#f29770" data="id:267" transform="translate(153.8137429789851, 160.81307810229183) scale(0.6027312713874514)"><path d="M2.4,48.12q-0.36,0-0.54-0.28t-0.18-0.6q0.04-0.68,0.34-0.76t0.7-0.08q1.28,0,1.8-0.46t0.66-1.16t0.14-1.46l0-15.88q0-0.76-0.14-1.46t-0.66-1.16t-1.8-0.46q-0.4,0-0.7-0.08t-0.34-0.76q0-0.32,0.18-0.6t0.54-0.28q1.28,0.04,2.44,0.08t2.36,0.04l6,0q0.76,0,1.98,0.12t2.6,0.48t2.62,1.16t2.02,2.12t0.78,3.32q0,1.88-0.86,3.4t-2.28,2.6t-3.2,1.66t-3.62,0.58q-0.88,0-1.92-0.12t-2.08-0.52l0,5.76q0.04,0.76,0.16,1.46t0.66,1.16t1.78,0.46q0.44,0,0.72,0.08t0.32,0.76q0,0.32-0.18,0.6t-0.54,0.28q-2.56-0.12-5-0.12q-1.2,0-2.34,0.02t-2.42,0.1z M12.08,36.4q0.92,0,2.06-0.3t2.2-1t1.74-1.92t0.68-3.1q0-2.04-0.8-3.22t-1.98-1.74t-2.34-0.72t-1.88-0.16q-0.96,0-1.52,0.2t-0.78,0.86t-0.22,2.02l0,8.64q0.4,0.16,1.16,0.3t1.68,0.14z M26.12,48.12q-0.28,0-0.46-0.26t-0.18-0.54q0.08-0.6,0.32-0.66t0.64-0.06q1.12,0,1.52-0.38t0.46-1.02t0.06-1.32l0-9.16q0-0.72-0.06-1.34t-0.46-1t-1.52-0.38q-0.36,0-0.66-0.1t-0.3-0.7t0.64-0.72q1.84-0.28,2.82-0.56t1.48-0.48t0.9-0.24q0.32-0.04,0.54,0.12t0.22,0.64l0,2.48l0.12,0q1.36-1.32,2.8-2.18t2.64-0.86q1.4,0,2.14,1.04t0.74,2.2q0,1-0.64,1.94t-1.92,0.94q-0.64,0-1.02-0.26t-0.42-0.38q0-0.08,0.38-0.48t0.38-1q0-0.72-0.38-1.16t-1.02-0.44q-0.68,0-1.74,0.68t-2.02,1.64l0,9.76q0,0.68,0.06,1.32t0.48,1.02t1.54,0.38q0.36,0,0.62,0.06t0.3,0.66q0,0.28-0.16,0.54t-0.48,0.26q-1.16-0.08-2.14-0.1t-2.06-0.02t-2.04,0.02t-2.12,0.1z M52.12,48.48q-2.8,0-4.9-1.32t-3.26-3.44t-1.16-4.52q0-2.36,0.84-4.2t2.22-3.08t3.02-1.88t3.24-0.64q2.8,0,4.9,1.32t3.26,3.44t1.16,4.52q0,2.36-0.86,4.2t-2.24,3.08t-3.02,1.88t-3.2,0.64z M52.12,47q1.96,0,3.1-1.16t1.64-3.06t0.5-4.1q0-2.12-0.52-3.88t-1.68-2.84t-3.04-1.08q-1.96,0-3.12,1.14t-1.64,3t-0.48,4.1q0,2.08,0.5,3.88t1.66,2.9t3.08,1.1z M64.6,56.2q-0.52,0.08-0.8-0.56q-0.04-0.32-0.02-0.58t0.34-0.38q1.96-0.84,2.84-2.38t1.14-3.92t0.26-5.62l0-8.04q0-0.72-0.06-1.34t-0.46-1t-1.52-0.38q-0.36,0-0.66-0.1t-0.3-0.7t0.64-0.72q1.84-0.28,2.82-0.56t1.5-0.48t0.92-0.24q0.32-0.04,0.54,0.12t0.22,0.64l0,14.08q0,3-0.66,5.52t-2.28,4.24t-4.46,2.4z M69.88,24.76q-1.12,0-1.88-0.7t-0.76-1.74q0-0.92,0.92-1.64t2.08-0.72q1,0,1.64,0.7t0.64,1.78q0,0.96-0.76,1.64t-1.88,0.68z M86.08,48.48q-3.08,0-5.18-1.32t-3.14-3.52t-1.04-4.8q0-1.76,0.62-3.42t1.78-3.04t2.8-2.18t3.72-0.8q3.68,0,5.54,1.9t2.14,4.82q0,1.4-0.78,1.84t-2.02,0.44l-9.72,0q0,2.32,0.64,4.14t2.02,2.88t3.66,1.06q1.68,0,2.88-0.72t2.32-2.52q0.32-0.4,0.88-0.04q0.32,0.16,0.4,0.5t-0.08,0.58q-1.24,1.96-3.12,3.08t-4.32,1.12z M80.8,36.88l6.52,0q0.96,0,1.54-0.38t0.62-1.3q0-1.72-0.94-3.06t-2.9-1.34q-2,0-3.34,1.6t-1.5,4.48z M105.52,48.48q-4.12,0-6.42-2.62t-2.3-6.94q0.12-2.76,1.38-4.88t3.36-3.34t4.66-1.3q1.4,0,2.86,0.34t2.44,1.24t0.98,2.58q0,1.16-0.72,2.14t-2,0.98q-0.88,0-1.36-0.44t-0.48-0.64q0-0.08,0.34-0.34t0.66-0.72t0.32-1.14q0-1.28-0.92-1.88t-2.08-0.64q-1.76,0-2.82,0.72t-1.62,1.9t-0.74,2.58t-0.18,2.72q0,2.2,0.68,3.94t1.92,2.74t2.96,1q1.76,0,2.96-0.76t2.2-2.24q0.28-0.4,0.84-0.08q0.28,0.16,0.4,0.44t-0.08,0.56q-1.32,1.88-3.28,2.98t-3.96,1.1z M122.8,48.68q-1.2,0-2.28-0.6t-1.78-1.84t-0.7-3.12l0-11.76l-2.32,0.08q-0.28,0-0.42-0.22t-0.14-0.5q0-0.8,0.56-0.92q1.48-0.28,2.24-0.94t1.18-1.58t0.78-2q0.12-0.32,0.36-0.42t0.52-0.1q0.24,0,0.54,0.12t0.3,0.44l-0.28,4.56l4.68-0.28q0.36-0.04,0.48,0.2t0.12,0.56q0,0.4-0.14,0.8t-0.34,0.4l-4.48-0.12l0,12.16q0,1.16,0.5,2.12t1.82,0.96q0.44,0,1-0.08t1.2-0.36q0.16-0.08,0.32-0.14t0.32-0.06q0.32,0,0.48,0.26t0.28,0.54q0.12,0.36-0.2,0.56q-1.24,0.8-2.28,1.04t-2.32,0.24z  M140.68,48.12q-0.4,0-0.56-0.28t-0.16-0.6q0.04-0.68,0.32-0.76t0.68-0.08q1.28,0,1.8-0.46t0.66-1.16t0.14-1.46l0-15.88q0-0.76-0.14-1.46t-0.66-1.16t-1.8-0.46q-0.4,0-0.68-0.08t-0.32-0.76q0-0.32,0.16-0.6t0.56-0.28q1.28,0.04,2.4,0.08t2.32,0.04q2.44,0,5-0.12q0.4,0,0.56,0.28t0.16,0.6q-0.04,0.68-0.3,0.76t-0.7,0.08q-1.24,0-1.78,0.46t-0.66,1.16t-0.16,1.46l0,7.08l12.56,0l0-7.08q0-0.76-0.14-1.46t-0.66-1.16t-1.8-0.46q-0.4,0-0.7-0.08t-0.34-0.76q0-0.32,0.18-0.6t0.54-0.28q2.6,0.12,5,0.12q1.2,0,2.34-0.04t2.42-0.08q0.36,0,0.54,0.28t0.18,0.6q-0.04,0.68-0.32,0.76t-0.68,0.08q-1.24,0-1.8,0.46t-0.68,1.16t-0.16,1.46l0,15.88q0.04,0.76,0.16,1.46t0.68,1.16t1.8,0.46q0.4,0,0.68,0.08t0.32,0.76q0,0.32-0.18,0.6t-0.54,0.28q-1.28-0.08-2.44-0.1t-2.36-0.02q-2.36,0-4.96,0.12q-0.36,0-0.54-0.28t-0.18-0.6q0.04-0.68,0.34-0.76t0.7-0.08q1.28,0,1.8-0.46t0.66-1.16t0.14-1.46l0-7.08l-12.56,0l0,7.08q0.04,0.76,0.16,1.46t0.66,1.16t1.78,0.46q0.44,0,0.7,0.08t0.3,0.76q0,0.32-0.16,0.6t-0.56,0.28q-2.56-0.12-4.96-0.12q-1.2,0-2.34,0.02t-2.42,0.1z M180.32,48.48q-3.08,0-5.18-1.32t-3.14-3.52t-1.04-4.8q0-1.76,0.62-3.42t1.78-3.04t2.8-2.18t3.72-0.8q3.68,0,5.54,1.9t2.14,4.82q0,1.4-0.78,1.84t-2.02,0.44l-9.72,0q0,2.32,0.64,4.14t2.02,2.88t3.66,1.06q1.68,0,2.88-0.72t2.32-2.52q0.32-0.4,0.88-0.04q0.32,0.16,0.4,0.5t-0.08,0.58q-1.24,1.96-3.12,3.08t-4.32,1.12z M175.04,36.88l6.52,0q0.96,0,1.54-0.38t0.62-1.3q0-1.72-0.94-3.06t-2.9-1.34q-2,0-3.34,1.6t-1.5,4.48z M190.96,48.12q-0.28,0-0.46-0.26t-0.18-0.54q0.04-0.6,0.3-0.66t0.62-0.06q1.12,0,1.54-0.38t0.48-1.02t0.06-1.32l0-19.52q0-0.72-0.06-1.34t-0.46-1t-1.52-0.38q-0.36,0-0.66-0.1t-0.3-0.7t0.64-0.72q1.84-0.28,2.82-0.56t1.5-0.48t0.92-0.24q0.32-0.04,0.54,0.12t0.22,0.64l0,24.28q0,0.68,0.06,1.32t0.48,1.02t1.54,0.38q0.36,0,0.62,0.06t0.3,0.66q0,0.28-0.16,0.54t-0.48,0.26q-1.16-0.08-2.14-0.1t-2.06-0.02t-2.04,0.02t-2.12,0.1z M202.4,56.32q-0.28,0-0.46-0.26t-0.18-0.54q0.04-0.6,0.3-0.66t0.62-0.06q1.08,0,1.5-0.38t0.5-1.02t0.08-1.32l0-17.36q0-0.72-0.06-1.34t-0.46-1t-1.52-0.38q-0.36,0-0.66-0.1t-0.3-0.7t0.64-0.72q1.84-0.28,2.82-0.56t1.48-0.48t0.9-0.24q0.32-0.04,0.54,0.12t0.22,0.64l0,1.92l0.12,0q1.12-1.04,2.68-1.76t3-0.72q2.44,0,4.32,1.2t2.96,3.34t1.08,4.98q0,2.88-1.32,5.04t-3.4,3.34t-4.44,1.18q-1.8,0-2.9-0.38t-1.9-0.86l-0.16,0l0,4.84q0,0.68,0.08,1.32t0.52,1.02t1.48,0.38q0.36,0,0.62,0.06t0.3,0.66q0,0.28-0.16,0.54t-0.48,0.26q-1.16-0.08-2.14-0.1t-2.06-0.02t-2.04,0.02t-2.12,0.1z M213.04,47.12q1.56,0,2.6-0.78t1.66-2t0.88-2.64t0.26-2.66q0-1.88-0.58-3.62t-1.84-2.88t-3.3-1.14q-1.52,0-2.52,0.62t-1.8,1.46l0,10.72q0.44,1.04,1.62,1.98t3.02,0.94z M226.16,48.12q-0.28,0-0.46-0.26t-0.18-0.54q0.08-0.6,0.32-0.66t0.64-0.06q1.12,0,1.52-0.38t0.46-1.02t0.06-1.32l0-9.16q0-0.72-0.06-1.34t-0.46-1t-1.52-0.38q-0.36,0-0.66-0.1t-0.3-0.7t0.64-0.72q1.84-0.28,2.82-0.56t1.5-0.48t0.92-0.24q0.32-0.04,0.54,0.12t0.22,0.64l0,13.92q0,0.68,0.06,1.32t0.48,1.02t1.54,0.38q0.36,0,0.62,0.06t0.3,0.66q0,0.28-0.16,0.54t-0.48,0.26q-1.16-0.08-2.14-0.1t-2.06-0.02t-2.04,0.02t-2.12,0.1z M230.12,24.76q-1.12,0-1.88-0.7t-0.76-1.74q0-0.92,0.92-1.64t2.08-0.72q1,0,1.64,0.7t0.64,1.78q0,0.96-0.76,1.64t-1.88,0.68z M238,48.12q-0.28,0-0.46-0.26t-0.18-0.54q0.08-0.6,0.32-0.66t0.64-0.06q1.12,0,1.52-0.38t0.46-1.02t0.06-1.32l0-9.16q0-0.72-0.06-1.34t-0.46-1t-1.52-0.38q-0.36,0-0.66-0.1t-0.3-0.7t0.64-0.72q1.84-0.28,2.82-0.56t1.48-0.48t0.9-0.24q0.32-0.04,0.54,0.12t0.22,0.64l0,2.52l0.12,0q0.8-0.76,1.64-1.46t1.98-1.16t2.82-0.46q2.72,0,4.32,1.64t1.6,4.32l0,8.52q0,0.68,0.06,1.32t0.48,1.02t1.54,0.38q0.36,0,0.62,0.06t0.3,0.66q0,0.28-0.16,0.54t-0.48,0.26q-1.16-0.08-2.14-0.1t-2.06-0.02t-2.04,0.02t-2.12,0.1q-0.28,0-0.46-0.26t-0.18-0.54q0.04-0.6,0.3-0.66t0.62-0.06q1.12,0,1.54-0.38t0.48-1.02t0.06-1.32l0-8.48q0-1.32-0.58-2.16t-1.46-1.24t-1.8-0.4q-1.36,0-2.4,0.5t-1.68,1.14t-0.88,1.12l0,9.52q0,0.68,0.06,1.32t0.48,1.02t1.54,0.38q0.36,0,0.62,0.06t0.3,0.66q0,0.28-0.16,0.54t-0.48,0.26q-1.16-0.08-2.14-0.1t-2.06-0.02t-2.04,0.02t-2.12,0.1z M269.52,56.72q-8.44,0-8.44-4.8q0-1.32,0.84-2.34t2.24-1.02q0.92,0,1.52,0.5t0.6,0.7q0,0.08-0.3,0.36t-0.6,0.76t-0.3,1.28q0,3.08,5.28,3.08q3,0,4.66-1.04t1.66-3.16q0-1.16-0.74-1.76t-1.96-0.84t-2.7-0.3t-2.98-0.1t-2.78-0.24q-1.4-0.24-2.34-0.94t-0.94-2.3q0-1.48,1.06-2.58t3.18-1.1q-2.56-1-3.42-2.44t-0.86-2.96q0-1.72,0.98-3.1t2.72-2.2t4.02-0.82q1.12,0,2.34,0.18t2.1,0.62l5.48-1.04q0.44-0.04,0.6,0.28t0.16,0.68q0,0.52-0.16,1.02t-0.44,0.5l-3.96-0.16l0,0.08q0.68,0.68,1.16,1.8t0.48,2.12q0,1.92-1.1,3.32t-2.8,2.14t-3.54,0.74l-1.76,0q-2.08,0-3.02,0.4t-0.94,1.32q0,0.72,0.5,1.1t1.82,0.46l5.48,0.2q4.28,0.16,6.1,1.36t1.82,3.56q0,2.12-1.34,3.62t-3.76,2.28t-5.62,0.78z M269.92,40.48q1.84,0,3-1.3t1.16-3.74q0-2.24-1.18-3.54t-3.02-1.3q-1.76,0-2.94,1.26t-1.18,3.5q0,2.44,1.18,3.78t2.98,1.34z  M292.28,48.12q-0.4,0-0.56-0.28t-0.16-0.6q0.04-0.68,0.32-0.76t0.68-0.08q1.28,0,1.8-0.46t0.66-1.16t0.14-1.46l0-15.88q0-0.76-0.14-1.46t-0.66-1.16t-1.8-0.46q-0.4,0-0.68-0.08t-0.32-0.76q0-0.32,0.16-0.6t0.56-0.28q1.28,0.04,2.4,0.08t2.32,0.04q2.44,0,5-0.12q0.4,0,0.56,0.28t0.16,0.6q-0.04,0.68-0.3,0.76t-0.7,0.08q-1.24,0-1.78,0.46t-0.66,1.16t-0.16,1.46l0,7.08l12.56,0l0-7.08q0-0.76-0.14-1.46t-0.66-1.16t-1.8-0.46q-0.4,0-0.7-0.08t-0.34-0.76q0-0.32,0.18-0.6t0.54-0.28q2.6,0.12,5,0.12q1.2,0,2.34-0.04t2.42-0.08q0.36,0,0.54,0.28t0.18,0.6q-0.04,0.68-0.32,0.76t-0.68,0.08q-1.24,0-1.8,0.46t-0.68,1.16t-0.16,1.46l0,15.88q0.04,0.76,0.16,1.46t0.68,1.16t1.8,0.46q0.4,0,0.68,0.08t0.32,0.76q0,0.32-0.18,0.6t-0.54,0.28q-1.28-0.08-2.44-0.1t-2.36-0.02q-2.36,0-4.96,0.12q-0.36,0-0.54-0.28t-0.18-0.6q0.04-0.68,0.34-0.76t0.7-0.08q1.28,0,1.8-0.46t0.66-1.16t0.14-1.46l0-7.08l-12.56,0l0,7.08q0.04,0.76,0.16,1.46t0.66,1.16t1.78,0.46q0.44,0,0.7,0.08t0.3,0.76q0,0.32-0.16,0.6t-0.56,0.28q-2.56-0.12-4.96-0.12q-1.2,0-2.34,0.02t-2.42,0.1z M327.64,48.48q-2.44,0-3.9-1.4t-1.46-3.36q0-2.04,1.06-3.2t2.8-1.72t3.8-0.76t4.02-0.32l0-3.16q0-1.88-0.94-2.94t-3.18-1.06q-1.12,0-2.1,0.72t-0.98,2.08q0,0.64,0.32,1.08t0.64,0.68t0.32,0.32q0,0.16-0.46,0.58t-1.26,0.42q-1.24,0-1.92-0.92t-0.68-2.04q0-1.52,0.94-2.4t2.42-1.28t3-0.4q1.8,0,3.5,0.44t2.8,1.68t1.1,3.72l0,9.32q0.04,0.4,0.2,0.96t0.62,0.98t1.26,0.42q0.28,0,0.44,0.1t0.16,0.54q0,0.36-0.4,0.56t-0.92,0.28t-0.88,0.08q-1.48,0-2.64-0.86t-1.36-2.38q-0.88,1.6-2.62,2.42t-3.7,0.82z M328.92,46.32q1.36,0,2.5-0.68t1.84-1.86t0.7-2.62l0-2.28q-4.12,0.28-5.88,1.32t-1.76,3.4q0,2.72,2.6,2.72z M342.92,48.12q-0.28,0-0.46-0.26t-0.18-0.54q0.08-0.6,0.32-0.66t0.64-0.06q1.12,0,1.52-0.38t0.46-1.02t0.06-1.32l0-9.16q0-0.72-0.06-1.34t-0.46-1t-1.52-0.38q-0.36,0-0.66-0.1t-0.3-0.7t0.64-0.72q1.84-0.28,2.82-0.56t1.48-0.48t0.9-0.24q0.32-0.04,0.54,0.12t0.22,0.64l0,2.52l0.12,0q0.8-0.76,1.64-1.46t1.98-1.16t2.82-0.46q2.72,0,4.32,1.64t1.6,4.32l0,8.52q0,0.68,0.06,1.32t0.48,1.02t1.54,0.38q0.36,0,0.62,0.06t0.3,0.66q0,0.28-0.16,0.54t-0.48,0.26q-1.16-0.08-2.14-0.1t-2.06-0.02t-2.04,0.02t-2.12,0.1q-0.28,0-0.46-0.26t-0.18-0.54q0.04-0.6,0.3-0.66t0.62-0.06q1.12,0,1.54-0.38t0.48-1.02t0.06-1.32l0-8.48q0-1.32-0.58-2.16t-1.46-1.24t-1.8-0.4q-1.36,0-2.4,0.5t-1.68,1.14t-0.88,1.12l0,9.52q0,0.68,0.06,1.32t0.48,1.02t1.54,0.38q0.36,0,0.62,0.06t0.3,0.66q0,0.28-0.16,0.54t-0.48,0.26q-1.16-0.08-2.14-0.1t-2.06-0.02t-2.04,0.02t-2.12,0.1z M374.96,48.48q-2.24,0-4.16-1.2t-3.08-3.36t-1.16-5q0-2.48,1.18-4.66t3.28-3.52t4.78-1.34q1.28,0,2.52,0.3t2.12,0.82l0.12,0l0-6.12q0-0.72-0.06-1.34t-0.46-1t-1.52-0.38q-0.36,0-0.66-0.1t-0.3-0.7t0.64-0.72q1.84-0.28,2.82-0.56t1.5-0.48t0.92-0.24q0.32-0.04,0.54,0.12t0.22,0.64l0,24.68q0,2.36,3.12,2.36q0.44,0,0.56,0.22t0.12,0.42q0,0.56-0.68,0.68l-6.36,0.44q-0.28,0-0.32-0.24t-0.04-0.56l0-1.6l-0.12,0q-1,1.04-2.5,1.74t-3.02,0.7z M376.32,46.48q1.52,0,2.52-0.62t1.72-1.38l0-10.56q-0.2-0.68-0.74-1.38t-1.44-1.2t-2.18-0.5q-2.32,0-3.92,2.18t-1.6,6.1q0,1.88,0.62,3.58t1.86,2.74t3.16,1.04z"></path></g><g data-name="slogan" fill="#f29770" data="id:333" transform="translate(152.75575660349557, 191.86205657249909) scale(0.7465734777891745)"><path d="M7.8515625,47.55859375q-0.390625,0.56640625-1.376953125,0.56640625t-1.669921875-0.546875t-1.1328125-1.3671875q-0.8984375-1.640625-0.8984375-3.28125t0.361328125-3.359375t0.986328125-3.623046875t1.455078125-3.896484375t1.767578125-3.88671875q1.9140625-3.9453125,3.80859375-6.8359375l-0.21484375,0q-2.32421875,0-4.31640625,1.0546875q-0.48828125,0.37109375-0.9375,0.37109375q-0.9375,0-1.81640625-0.91796875q-2.03125-2.1484375,2.421875-3.5546875q2.08984375-0.68359375,3.369140625-0.68359375t2.060546875,0.400390625t1.328125,0.947265625q0.859375,0.859375,1.220703125,1.69921875t0.361328125,1.474609375t-0.380859375,1.69921875t-0.966796875,2.275390625l-1.328125,2.578125q-0.703125,1.34765625-1.40625,2.83203125l-1.40625,2.96875t-1.25,2.890625q-1.19140625,3.14453125-1.19140625,5.33203125q0,1.2109375,0.234375,2.08984375l2.05078125-3.41796875q6.25-10.078125,12.34375-15.15625q1.71875-1.4453125,3.3984375-2.265625q0.2734375-0.13671875,0.64453125-0.13671875t0.791015625,0.087890625t0.791015625,0.263671875q0.859375,0.41015625,0.859375,0.99609375q0,0.2734375-0.1953125,0.5078125l-0.68359375,0.7421875q-3.90625,4.140625-5.25390625,11.5625q-0.4296875,2.28515625-0.4296875,3.623046875t0.078125,1.826171875t0.3125,0.91796875q0.52734375,0.9765625,1.58203125,0.9765625t2.34375-0.78125t2.607421875-2.1484375t2.55859375-3.212890625t2.197265625-3.955078125q2.1484375-4.66796875,2.1484375-8.90625q0-3.26171875-1.4453125-5.52734375q-0.390625-0.5859375,0.76171875-1.5234375q1.171875-0.9765625,2.63671875-0.9765625q1.93359375,0,2.6171875,3.4375q0.234375,1.1328125,0.234375,2.96875t-0.44921875,4.04296875t-1.259765625,4.306640625t-1.9140625,4.033203125t-2.412109375,3.61328125t-2.7734375,3.056640625t-2.98828125,2.353515625q-3.14453125,2.0703125-5.95703125,2.0703125q-2.578125,0-3.84765625-2.03125q-1.11328125-1.7578125-1.11328125-4.47265625q0-4.4921875,1.73828125-8.73046875q-1.62109375,1.81640625-3.1640625,3.75q-3.828125,5-5.33203125,7.16796875z M39.2578125,41.1328125q0.078125-1.69921875,0.56640625-3.251953125t1.30859375-3.0078125t1.923828125-2.75390625t2.392578125-2.275390625q2.79296875-2.08984375,5.64453125-2.08984375q3.33984375,0,4.453125,2.75390625q0.390625,0.9375,0.37109375,2.216796875t-0.48828125,2.36328125t-1.298828125,1.97265625t-1.97265625,1.591796875t-2.490234375,1.19140625q-2.7734375,0.9765625-5.9375,1.015625q-0.078125,0.2734375-0.09765625,0.8203125t0.1171875,1.220703125t0.46875,1.201171875q0.703125,1.171875,2.03125,1.171875q2.265625,0,4.4140625-1.328125q0.76171875-0.44921875,1.240234375-0.927734375t0.830078125-0.478515625t0.615234375,0.419921875t0.263671875,0.947265625q0,1.03515625-0.5859375,1.796875q-2.4609375,2.4609375-7.32421875,2.4609375q-2.87109375,0-4.609375-1.71875q-1.953125-1.953125-1.8359375-5.3125z M50.6640625,30.3515625q-2.05078125,0-3.9453125,2.8125q-1.6015625,2.421875-2.578125,5.7421875q3.26171875-0.33203125,5.6640625-2.578125q2.20703125-2.109375,2.20703125-4.04296875t-1.34765625-1.93359375z  M70.13671875,41.23046875q0.0390625-1.69921875,0.537109375-3.388671875t1.328125-3.193359375t1.97265625-2.7734375t2.490234375-2.1875q2.8125-1.93359375,5.91796875-1.93359375q3.203125,0,4.35546875,2.55859375q0.41015625,0.91796875,0.380859375,2.080078125t-0.380859375,2.12890625t-0.87890625,1.728515625q-1.19140625,1.71875-2.40234375,1.71875q-1.34765625,0-1.9921875-0.7421875q-0.56640625-0.64453125-0.3515625-1.50390625q0.05859375-0.25390625,0.3515625-0.458984375t0.7421875-0.654296875q1.26953125-1.328125,1.328125-3.10546875q0.0390625-1.2109375-1.484375-1.2109375q-1.640625,0-3.4375,1.8359375q-2.6171875,2.67578125-3.69140625,6.85546875q-0.9375,3.6328125,0.3515625,5.3125q0.76171875,0.9765625,2.0703125,0.9765625q2.20703125,0,4.2578125-1.5625q0.625-0.48828125,1.015625-0.99609375t0.72265625-0.5078125t0.556640625,0.322265625t0.224609375,0.830078125q0,1.15234375-1.03515625,2.265625q-2.65625,2.5390625-6.38671875,2.5390625q-3.18359375,0-4.921875-1.81640625q-1.71875-1.796875-1.640625-5.1171875z M103.90625,42.7734375q0,1.796875,1.26953125,1.796875q0.87890625,0,1.455078125-0.2734375t0.771484375-0.2734375q0.41015625,0,0.41015625,0.4296875q0,1.6796875-1.7578125,2.890625q-1.85546875,1.26953125-3.7890625,0.625q-1.26953125-0.44921875-1.875-1.93359375q-0.29296875-0.76171875-0.29296875-1.38671875q0-1.015625,0.1953125-2.1484375q-1.81640625,3.7109375-4.51171875,5.1171875q-1.07421875,0.546875-2.28515625,0.546875t-2.099609375-0.498046875t-1.513671875-1.376953125q-1.26953125-1.8359375-1.15234375-4.609375q0.1171875-3.4765625,2.05078125-6.81640625q1.77734375-3.125,4.4921875-5.09765625q2.71484375-2.01171875,5.078125-2.01171875t3.80859375,2.16796875q1.34765625-2.16796875,2.3828125-2.16796875q1.11328125,0,1.6796875,0.41015625q1.07421875,0.78125,0.76171875,1.3671875q-4.90234375,10.0390625-5.0390625,12.5q-0.0390625,0.3515625-0.0390625,0.7421875z M93.06640625,42.8515625q0,2.34375,1.50390625,2.34375q1.15234375,0,2.83203125-1.953125q2.4609375-2.87109375,4.35546875-7.734375q0.60546875-1.5234375,1.015625-3.046875q-0.078125-1.328125-1.11328125-1.953125q-0.3515625-0.21484375-1.044921875-0.21484375t-1.62109375,0.5078125t-1.796875,1.38671875t-1.62109375,2.080078125t-1.318359375,2.607421875q-1.19140625,3.0078125-1.19140625,5.9765625z M109.94140625,46.845703125q-0.234375-0.361328125-0.25390625-0.625t0.107421875-0.64453125t0.341796875-0.927734375q3.984375-9.8046875,3.984375-13.1640625q-0.05859375-0.9375-0.64453125-1.328125l-0.390625-0.2734375q-0.17578125-0.13671875-0.185546875-0.478515625t0.244140625-0.654296875t0.6640625-0.546875q0.83984375-0.44921875,1.728515625-0.44921875t1.38671875,0.1953125t0.849609375,0.52734375q0.7421875,0.703125,0.751953125,1.484375t-0.17578125,1.58203125t-0.439453125,1.572265625t-0.5078125,1.46484375t-0.33203125,1.025390625q-0.15625,0.68359375-0.1171875,0.859375q0.46875-0.41015625,0.56640625-0.80078125l0.76171875-1.4453125q2.5390625-4.5703125,4.9609375-6.0546875q0.703125-0.41015625,1.689453125-0.41015625t1.591796875,0.693359375t0.634765625,1.533203125t-0.1171875,1.396484375t-0.439453125,1.044921875q-0.64453125,1.09375-1.5625,1.09375q-0.25390625,0-0.46875-0.17578125l-0.4296875-0.37109375q-0.64453125-0.56640625-1.240234375-0.56640625t-1.4453125,0.78125t-1.767578125,2.01171875q-3.0859375,4.08203125-5.0390625,9.140625l-0.859375,2.265625q-0.33203125,0.83984375-0.5859375,1.201171875t-0.751953125,0.361328125t-0.99609375-0.185546875t-0.888671875-0.478515625t-0.625-0.654296875z M126.9921875,41.1328125q0.078125-1.69921875,0.56640625-3.251953125t1.30859375-3.0078125t1.923828125-2.75390625t2.392578125-2.275390625q2.79296875-2.08984375,5.64453125-2.08984375q3.33984375,0,4.453125,2.75390625q0.390625,0.9375,0.37109375,2.216796875t-0.48828125,2.36328125t-1.298828125,1.97265625t-1.97265625,1.591796875t-2.490234375,1.19140625q-2.7734375,0.9765625-5.9375,1.015625q-0.078125,0.2734375-0.09765625,0.8203125t0.1171875,1.220703125t0.46875,1.201171875q0.703125,1.171875,2.03125,1.171875q2.265625,0,4.4140625-1.328125q0.76171875-0.44921875,1.240234375-0.927734375t0.830078125-0.478515625t0.615234375,0.419921875t0.263671875,0.947265625q0,1.03515625-0.5859375,1.796875q-2.4609375,2.4609375-7.32421875,2.4609375q-2.87109375,0-4.609375-1.71875q-1.953125-1.953125-1.8359375-5.3125z M138.3984375,30.3515625q-2.05078125,0-3.9453125,2.8125q-1.6015625,2.421875-2.578125,5.7421875q3.26171875-0.33203125,5.6640625-2.578125q2.20703125-2.109375,2.20703125-4.04296875t-1.34765625-1.93359375z"></path></g></svg>