<svg xmlns="http://www.w3.org/2000/svg" xmlns:xlink="http://www.w3.org/1999/xlink" width="400" height="400" viewBox="0 0 400 400">
<rect data-name="background" width="100%" height="100%" fill="#f1f1f1"/><g data-name="icon" fill="#de4643" data="id:7303845" transform="translate(19.447816411420767,162.77072001057468) scale(0.7444655567622146)">
    
 <path d="m32.293 67.262v19.551c-0.007813 2.4414-1.9844 4.4219-4.4297 4.4258h-5.7305 0.003907c-0.46094 0-0.83594-0.37109-0.83594-0.83203v-26.73c0-0.21875 0.085938-0.43359 0.24219-0.58984s0.37109-0.24609 0.59375-0.24219h5.7305-0.003907c2.4414 0 4.4219 1.9766 4.4297 4.418zm17.926-19.344h-0.4375c-16.52-4.5859-24.25-17.867-23.355-28.605 0.48828-5.9375 3.7188-9.9375 8.4375-10.418 9.5742-1.043 13.613 5.0938 15.137 8.6758 1.5195-3.582 5.5742-9.6992 15.137-8.6758 4.7188 0.5 7.9492 4.5 8.4375 10.418 0.89453 10.738-6.8359 24.02-23.355 28.605zm12.406-14.75c-0.16797-0.14844-0.38672-0.21875-0.60547-0.20312-0.22266 0.015625-0.42578 0.11719-0.57031 0.28516-1.1758 1.3359-2.4961 2.5391-3.9375 3.582-0.28516 0.21484-0.40625 0.58594-0.29297 0.92578 0.10938 0.33984 0.42578 0.57031 0.78125 0.57422 0.17578 0 0.34766-0.054687 0.48828-0.15625 1.543-1.1055 2.9609-2.3789 4.2188-3.8008 0.15234-0.16797 0.23047-0.39453 0.21484-0.62109-0.015625-0.22656-0.12109-0.44141-0.29688-0.58594zm5.582-13.375c-0.046875-0.62891-0.14844-1.25-0.3125-1.8555-0.035156-0.23438-0.16797-0.44141-0.36328-0.57031-0.19531-0.13281-0.44141-0.17188-0.66797-0.11328-0.23047 0.058594-0.42188 0.21484-0.53125 0.42188-0.10938 0.21094-0.125 0.45703-0.039062 0.67969 0.125 0.51562 0.21094 1.043 0.25781 1.5703 0.125 3.332-0.69922 6.625-2.3828 9.5-0.21875 0.40234-0.074219 0.90234 0.32031 1.125 0.125 0.070313 0.26562 0.10547 0.40625 0.10547 0.30859 0 0.58984-0.17578 0.73047-0.44922 1.8359-3.1523 2.7344-6.7695 2.582-10.414zm-46.875 3.3008c0-0.22266-0.085937-0.43359-0.24219-0.58984s-0.36719-0.24219-0.58984-0.24219h-7.1367c-0.45703 0-0.83203 0.37109-0.83203 0.83203s0.375 0.83203 0.83203 0.83203h7.0938c0.22656 0 0.44531-0.089843 0.60156-0.25391s0.24219-0.38281 0.23438-0.60938zm-0.20703-4.832c0.14844-0.16797 0.22266-0.38281 0.20703-0.60547-0.011719-0.21875-0.11328-0.42578-0.28125-0.57422l-5.043-4.5h0.003907c-0.34375-0.30469-0.87109-0.27734-1.1797 0.0625-0.30469 0.34375-0.27734 0.87109 0.0625 1.1797l5.0508 4.5h0.003907c0.14844 0.14062 0.34375 0.21875 0.55078 0.21875 0.23047-0.019531 0.44141-0.13281 0.58203-0.3125zm-5.1562 15.301 5.043-4.5c0.1875-0.14062 0.30859-0.35156 0.33203-0.58594 0.023438-0.23047-0.050781-0.46094-0.20703-0.63672-0.15625-0.17578-0.37891-0.27734-0.61328-0.28125-0.23438 0-0.45703 0.09375-0.61719 0.26562l-5.0508 4.4688c-0.26172 0.23047-0.35156 0.59766-0.22656 0.92188 0.125 0.32812 0.4375 0.53906 0.78906 0.53516 0.19922 0.007812 0.39844-0.058594 0.55078-0.1875zm71.531-10.5c0-0.22266-0.085938-0.43359-0.24219-0.58984s-0.37109-0.24219-0.58984-0.24219h-7.125c-0.46094 0-0.83594 0.37109-0.83594 0.83203s0.375 0.83203 0.83594 0.83203h7.0938c0.22656 0.011719 0.44531-0.074219 0.60938-0.23047 0.16016-0.15625 0.25391-0.375 0.25391-0.60156zm-7.375-4.7695 5.0508-4.5c0.34375-0.30859 0.37109-0.83594 0.0625-1.1797-0.30469-0.33984-0.83203-0.36719-1.1758-0.0625l-5.043 4.5c-0.25781 0.23047-0.35156 0.59766-0.22656 0.92188 0.12109 0.32422 0.43359 0.53906 0.78125 0.53906 0.19141-0.007813 0.37891-0.085938 0.51953-0.21875zm5.1133 15.207c0.15625-0.16797 0.23438-0.39453 0.21484-0.625-0.019531-0.22656-0.12891-0.4375-0.30859-0.58203l-5.0508-4.5c-0.34375-0.30469-0.86719-0.27734-1.1758 0.0625-0.14844 0.16406-0.22266 0.38281-0.20703 0.60156 0.011718 0.22266 0.11328 0.42969 0.27734 0.57422l5.043 4.5c0.14844 0.14062 0.34766 0.21875 0.55078 0.21875 0.23438 0.007812 0.46094-0.082031 0.625-0.25zm-20.812 23.293c0.27344-0.46094 0.58594-0.89453 0.9375-1.293h-0.13672 0.003907c-3.1914-0.44531-6.2344 1.4844-7.1875 4.5625l-2.7812 9.207c3.5781-3.7461 6.6602-7.9414 9.1641-12.477zm13.125 1.7305v-0.003907c-0.89844-2.332-3.0586-3.9414-5.5508-4.1328-2.4922-0.19531-4.875 1.0625-6.125 3.2266-2.875 5.0312-8.582 13.898-14.832 16.793-1.4844 0.73047-3.1094 1.1406-4.7617 1.1992-1.3281 0.003906-2.4961-0.87109-2.8633-2.1484-0.46094-1.3711 0.03125-2.8828 1.207-3.7266 2.3398-1.7227 4.3672-3.8398 5.9883-6.25 2.9062-4.168 1.832-8.332-0.73047-10.344h0.003907c-1.0625-0.86328-2.4297-1.2617-3.7891-1.1094-1.3594 0.15625-2.6016 0.85156-3.4414 1.9297-2.5508 3.0117-6.582 7.7188-9.2188 10.801v0.003907c0.35156 0.76953 0.53516 1.6094 0.53125 2.457v19.594c0 0.66016-0.10938 1.3125-0.32422 1.9375 2.8164 0.87109 5.7422 1.3203 8.6875 1.332 18.012 0 30.051-17.48 34.875-26.105v0.003907c0.92188-1.6797 1.0508-3.6797 0.34375-5.4609z"/>

    </g><g data-name="business_name" fill="#de4643" data="id:317" transform="translate(107.76622238178732,160.54714885181616) scale(1.0594212499810627)"><path d="M2.84,36.64q-0.6,0-0.64-0.2t-0.04-0.68l0-15q0-0.12,0.02-0.44t0.46-0.32l3.72,0q2.52,0,4.16,0.82t2.42,2.56t0.78,4.54q0,2.48-0.58,4.14t-1.6,2.66t-2.34,1.46t-2.8,0.46l-3.56,0z M1.72,48l0-27.36q0-0.32,0.14-0.48t0.54-0.16l1.92,0q0.48,0,0.56,0.32l0.08,0.32l0,26.72q0,0.32-0.14,0.44t-0.8,0.16t-2.3,0.04z M4.88,33.64l1.84,0q1.12,0,1.86-0.6t1.14-1.94t0.4-3.58q0-1.4-0.28-2.46t-0.98-1.64t-1.9-0.58l-2.08,0l0,10.8z M16.2,48l0-18.6q1.16-0.84,2.56-1.32t2.88-0.48q1.56,0,2.18,0.42t0.62,1.26q0,0.32-0.08,0.86t-0.28,1.06q-0.44-0.24-0.92-0.36t-1-0.12q-0.68,0-1.38,0.22t-1.26,0.66l-0.04,15.76q0,0.32-0.14,0.44t-0.82,0.16t-2.32,0.04z M32.28,48.4q-1.52,0-2.7-0.38t-1.98-1.46t-1.2-3.14t-0.4-5.42q0-5.48,1.76-7.94t4.88-2.46q2.12,0,3.5,0.88t2.06,3.12t0.68,6.28q0,5.6-1.68,8.06t-4.92,2.46z M32.36,45.64q0.88,0,1.54-0.62t1.06-2.3t0.4-4.8q0-3.2-0.32-4.82t-0.92-2.18t-1.6-0.56q-0.88,0-1.56,0.62t-1.06,2.3t-0.38,4.8q0,2.44,0.2,3.96t0.54,2.3t0.9,1.04t1.2,0.26z M40.12,55.84q-2.24,0-3.24-0.58t-1-1.54q0-0.44,0.1-0.88t0.34-0.8q0.68,0.36,1.52,0.58t1.88,0.22t1.54-0.4t0.68-1.26t0.18-2.26l0-19.44q0-0.76,0.26-1.06t0.96-0.36t2.02-0.06l0,21.44q0,1.76-0.42,3.2t-1.54,2.32t-3.28,0.88z M43.56,25.24q-0.76-0.04-1.2-0.58t-0.44-1.94q0.04-1.08,0.48-1.74t1.4-0.66q0.92,0,1.28,0.52t0.32,1.8q0,1.2-0.46,1.9t-1.38,0.7z M54.88,48.4q-1.36,0-2.54-0.38t-2.04-1.38t-1.32-2.84t-0.46-4.76q0-3.76,0.6-6.04t1.6-3.44t2.28-1.56t2.6-0.4q2.52,0,3.8,1.6t1.28,4.84q0,1.32-0.1,2.72t-0.38,2.48q-1.36,0.28-3.04,0.4t-3.2,0.18t-2.5,0.06l-0.98,0l0.04-2.64l0.76,0.02t1.86,0t2.24-0.12t1.94-0.34q0.12-0.56,0.16-1.2t0.04-1.2q-0.04-2.16-0.5-3.06t-1.78-0.9q-0.68,0-1.3,0.38t-1.1,1.32t-0.74,2.58t-0.26,4.2q0,1.88,0.22,3.12t0.68,1.92t1.16,0.98t1.7,0.3q1.2,0,2.38-0.32t2.14-0.92q0.2,0.48,0.26,1.1t0.06,1.1q0,0.6-0.76,1.12t-2.02,0.8t-2.78,0.28z M68.92,48.4q-1.48,0-2.58-0.38t-1.86-1.44t-1.14-3.02t-0.38-5.12q0-3.6,0.64-5.76t1.7-3.26t2.32-1.46t2.5-0.36q1.4,0,2.36,0.5t0.96,1.3q0,0.32-0.06,0.8t-0.26,1q-0.48-0.28-1.24-0.5t-1.6-0.22q-0.68,0-1.38,0.26t-1.3,1.06t-0.94,2.4t-0.34,4.24q0,2.12,0.22,3.5t0.66,2.16t1.12,1.1t1.56,0.32q0.96,0,1.82-0.3t1.38-0.62q0.16,0.52,0.22,0.94t0.06,0.82q0,0.84-1.24,1.44t-3.2,0.6z M81.48,48.4q-1.68,0-2.5-0.74t-1.06-2.08t-0.24-3.14l0-11.64l-2.72,0q0-1.28,0.02-1.86t0.18-0.76t0.48-0.18l2.04,0l0-6.08q0-0.6,0.26-0.82t0.96-0.26t2.02-0.04l0,7.2l4.08,0q0,1.24-0.02,1.84t-0.16,0.78t-0.46,0.18l-3.44,0l0,11.64q0,0.84,0.06,1.58t0.36,1.16t1.02,0.42q0.68,0,1.2-0.14t1.12-0.46q0.08,0.32,0.16,0.72t0.08,0.92q0,0.72-0.54,1.1t-1.32,0.52t-1.58,0.14z  M103.52,48l0-27.36q0-0.32,0.14-0.44t0.8-0.16t2.3-0.04l0,27.36q0,0.32-0.12,0.44t-0.8,0.16t-2.32,0.04z M93.92,48l0-27.36q0-0.32,0.12-0.44t0.8-0.16t2.32-0.04l0,27.36q0,0.32-0.12,0.44t-0.8,0.16t-2.32,0.04z M95.52,34.44l0-3.04l9.48,0l0,3.04l-9.48,0z M116.08,48.4q-1.36,0-2.54-0.38t-2.04-1.38t-1.32-2.84t-0.46-4.76q0-3.76,0.6-6.04t1.6-3.44t2.28-1.56t2.6-0.4q2.52,0,3.8,1.6t1.28,4.84q0,1.32-0.1,2.72t-0.38,2.48q-1.36,0.28-3.04,0.4t-3.2,0.18t-2.5,0.06l-0.98,0l0.04-2.64l0.76,0.02t1.86,0t2.24-0.12t1.94-0.34q0.12-0.56,0.16-1.2t0.04-1.2q-0.04-2.16-0.5-3.06t-1.78-0.9q-0.68,0-1.3,0.38t-1.1,1.32t-0.74,2.58t-0.26,4.2q0,1.88,0.22,3.12t0.68,1.92t1.16,0.98t1.7,0.3q1.2,0,2.38-0.32t2.14-0.92q0.2,0.48,0.26,1.1t0.06,1.1q0,0.6-0.76,1.12t-2.02,0.8t-2.78,0.28z M124.76,48l0-27.92q0-0.76,0.26-1.06t0.98-0.36t2-0.06l0,28.76q0,0.32-0.14,0.44t-0.8,0.16t-2.3,0.04z M133.24,55.88q-0.84,0-1.2-0.3t-0.36-1.1l0-25.28q1.2-0.76,2.72-1.18t3.12-0.42q2,0,3.46,0.7t2.26,2.52t0.8,5.1q0,3.2-0.36,5.42t-0.96,3.62t-1.38,2.14t-1.6,1.02t-1.66,0.28q-1.08,0-1.9-0.32t-1.26-0.8l0,8.32q-0.4,0.12-0.84,0.2t-0.84,0.08z M137.08,45.48q0.48,0,1.04-0.28t1.1-1.2t0.88-2.76t0.34-4.96q0-2.4-0.34-3.66t-1.02-1.72t-1.72-0.46q-1.36,0-2.44,0.76l0,12.96q0.44,0.72,1,1.02t1.16,0.3z M146.96,48l0-18.52q0-0.76,0.28-1.06t1-0.36t2.04-0.06l0,19.36q0,0.32-0.14,0.44t-0.82,0.16t-2.36,0.04z M148.52,25.24q-0.76-0.04-1.2-0.58t-0.44-1.94q0.04-1.08,0.48-1.74t1.4-0.66q0.92,0,1.28,0.52t0.32,1.8q0,1.2-0.46,1.9t-1.38,0.7z M153.92,48l0-19.04q0.8-0.36,1.88-0.66t2.24-0.5t2.24-0.2q2.08,0,3.32,0.54t1.76,1.7t0.52,3.12l0,14.4q0,0.32-0.16,0.44t-0.84,0.16t-2.36,0.04l0-14.08q0-1.88-0.44-2.68t-1.92-0.8q-0.68,0-1.52,0.16t-1.48,0.56l0,16.2q0,0.32-0.14,0.44t-0.82,0.16t-2.28,0.04z M174.72,55.88q-2.68,0-4.08-0.68t-1.88-1.68t-0.48-2q0-1.4,0.8-2.58t2.02-2.08t2.58-1.3l1.2,0.96q-0.76,0.32-1.52,1t-1.24,1.52t-0.48,1.72q0,0.6,0.26,1.1t1,0.76t2.1,0.26q2.16,0,3.12-1.02t0.96-2.06q0-0.92-0.4-1.42t-1.38-0.76t-2.74-0.38q-1.68-0.16-2.96-0.48t-2-0.88t-0.72-1.36q0.04-0.64,0.44-1.34t1.14-1.44t1.74-1.42l2,0.68q-0.24,0.16-0.68,0.58t-0.8,0.92t-0.36,0.94q0,0.52,1.36,0.76t3.36,0.48q1.56,0.24,2.76,0.74t1.86,1.42t0.66,2.52q0,1.72-0.8,3.22t-2.48,2.4t-4.36,0.9z M175.2,41.84q-2.4,0-3.76-0.92t-1.92-2.5t-0.56-3.5q0-2.64,0.84-4.26t2.36-2.34t3.48-0.72q0.44,0,1.1,0.12t1.22,0.32l0.68,1.44q1.4,0.56,2.22,1.88t0.82,3.48q0,2.12-0.66,3.68t-2.08,2.44t-3.74,0.88z M175.36,39.36q1.08,0,1.74-0.6t0.98-1.78t0.32-2.9q0-2.2-0.72-3.14t-2.2-0.94q-0.84,0-1.56,0.46t-1.12,1.52t-0.4,2.86q0,1.4,0.22,2.42t0.86,1.56t1.88,0.54z M181.6,30.72q-0.6,0-1.44-0.22t-1.68-0.48t-1.38-0.46l-0.54-0.2l-0.36-1.44l6.2,0q0.12,0.2,0.22,0.58t0.1,0.94q0,0.68-0.3,0.98t-0.82,0.3z  M200.8,48l0-27.36q0-0.32,0.14-0.44t0.8-0.16t2.3-0.04l0,27.36q0,0.32-0.12,0.44t-0.8,0.16t-2.32,0.04z M191.2,48l0-27.36q0-0.32,0.12-0.44t0.8-0.16t2.32-0.04l0,27.36q0,0.32-0.12,0.44t-0.8,0.16t-2.32,0.04z M192.8,34.44l0-3.04l9.48,0l0,3.04l-9.48,0z M212.68,48.4q-1.12,0-2.14-0.18t-1.82-0.8t-1.28-1.82t-0.48-3.28t0.44-3.38t1.2-2t1.72-0.94t1.96-0.24q0.64,0,1.5,0.12t1.46,0.4l0-0.56l0-1.3l0-1.3q0-0.96-0.3-1.46t-0.84-0.72t-1.34-0.22q-1.56,0-3,0.28t-2.32,0.64q-0.28-0.48-0.36-0.98t-0.08-0.9q0-0.28,0.1-0.6t0.34-0.48q0.52-0.32,2.16-0.7t3.92-0.38q2.6,0,3.78,1.08t1.18,3.8l0,2.12q0,2.28-0.02,4.58t-0.06,4.32t-0.16,3.54q-0.8,0.48-2.2,0.92t-3.36,0.44z M213,45.68q0.64,0,1.24-0.2t0.84-0.48q0.08-0.64,0.1-1.76t0.04-2.36t0.02-2.32q-0.4-0.2-0.94-0.28t-0.94-0.08q-0.64,0-1.18,0.14t-0.94,0.56t-0.64,1.22t-0.24,2.12q0,1.08,0.18,1.76t0.54,1.06t0.84,0.5t1.08,0.12z M221.76,48l0-19.04q0.8-0.36,1.88-0.66t2.24-0.5t2.24-0.2q2.08,0,3.32,0.54t1.76,1.7t0.52,3.12l0,14.4q0,0.32-0.16,0.44t-0.84,0.16t-2.36,0.04l0-14.08q0-1.88-0.44-2.68t-1.92-0.8q-0.68,0-1.52,0.16t-1.48,0.56l0,16.2q0,0.32-0.14,0.44t-0.82,0.16t-2.28,0.04z M242.96,48.4q-1.32,0-2.48-0.3t-2.08-1.28t-1.42-2.92t-0.5-5.18q0-3.96,0.82-6.42t2.2-3.58t3.1-1.12q0.92,0,1.64,0.2t1.2,0.6l0-8.32q0-0.76,0.26-1.06t0.98-0.36t2-0.06l0,28.6q-0.96,0.48-2.42,0.84t-3.3,0.36z M243.08,45.48q0.68,0,1.28-0.14t1.08-0.46l0-13.92q-0.36-0.32-0.78-0.42t-1.06-0.1t-1.28,0.32t-1.16,1.18t-0.8,2.4t-0.28,4.02q0,2.28,0.2,3.68t0.6,2.14t0.94,1.02t1.26,0.28z"/></g></svg>