<svg xmlns="http://www.w3.org/2000/svg" xmlns:xlink="http://www.w3.org/1999/xlink" width="400" height="400" viewBox="0 0 400 400"><g data-name="icon" fill="#de4643" data="id:7303845" transform="translate(5.909701629937466, 5.938705024522612) scale(3.8806001633915876)">
    
 <path d="m32.293 67.262v19.551c-0.007813 2.4414-1.9844 4.4219-4.4297 4.4258h-5.7305 0.003907c-0.46094 0-0.83594-0.37109-0.83594-0.83203v-26.73c0-0.21875 0.085938-0.43359 0.24219-0.58984s0.37109-0.24609 0.59375-0.24219h5.7305-0.003907c2.4414 0 4.4219 1.9766 4.4297 4.418zm17.926-19.344h-0.4375c-16.52-4.5859-24.25-17.867-23.355-28.605 0.48828-5.9375 3.7188-9.9375 8.4375-10.418 9.5742-1.043 13.613 5.0938 15.137 8.6758 1.5195-3.582 5.5742-9.6992 15.137-8.6758 4.7188 0.5 7.9492 4.5 8.4375 10.418 0.89453 10.738-6.8359 24.02-23.355 28.605zm12.406-14.75c-0.16797-0.14844-0.38672-0.21875-0.60547-0.20312-0.22266 0.015625-0.42578 0.11719-0.57031 0.28516-1.1758 1.3359-2.4961 2.5391-3.9375 3.582-0.28516 0.21484-0.40625 0.58594-0.29297 0.92578 0.10938 0.33984 0.42578 0.57031 0.78125 0.57422 0.17578 0 0.34766-0.054687 0.48828-0.15625 1.543-1.1055 2.9609-2.3789 4.2188-3.8008 0.15234-0.16797 0.23047-0.39453 0.21484-0.62109-0.015625-0.22656-0.12109-0.44141-0.29688-0.58594zm5.582-13.375c-0.046875-0.62891-0.14844-1.25-0.3125-1.8555-0.035156-0.23438-0.16797-0.44141-0.36328-0.57031-0.19531-0.13281-0.44141-0.17188-0.66797-0.11328-0.23047 0.058594-0.42188 0.21484-0.53125 0.42188-0.10938 0.21094-0.125 0.45703-0.039062 0.67969 0.125 0.51562 0.21094 1.043 0.25781 1.5703 0.125 3.332-0.69922 6.625-2.3828 9.5-0.21875 0.40234-0.074219 0.90234 0.32031 1.125 0.125 0.070313 0.26562 0.10547 0.40625 0.10547 0.30859 0 0.58984-0.17578 0.73047-0.44922 1.8359-3.1523 2.7344-6.7695 2.582-10.414zm-46.875 3.3008c0-0.22266-0.085937-0.43359-0.24219-0.58984s-0.36719-0.24219-0.58984-0.24219h-7.1367c-0.45703 0-0.83203 0.37109-0.83203 0.83203s0.375 0.83203 0.83203 0.83203h7.0938c0.22656 0 0.44531-0.089843 0.60156-0.25391s0.24219-0.38281 0.23438-0.60938zm-0.20703-4.832c0.14844-0.16797 0.22266-0.38281 0.20703-0.60547-0.011719-0.21875-0.11328-0.42578-0.28125-0.57422l-5.043-4.5h0.003907c-0.34375-0.30469-0.87109-0.27734-1.1797 0.0625-0.30469 0.34375-0.27734 0.87109 0.0625 1.1797l5.0508 4.5h0.003907c0.14844 0.14062 0.34375 0.21875 0.55078 0.21875 0.23047-0.019531 0.44141-0.13281 0.58203-0.3125zm-5.1562 15.301 5.043-4.5c0.1875-0.14062 0.30859-0.35156 0.33203-0.58594 0.023438-0.23047-0.050781-0.46094-0.20703-0.63672-0.15625-0.17578-0.37891-0.27734-0.61328-0.28125-0.23438 0-0.45703 0.09375-0.61719 0.26562l-5.0508 4.4688c-0.26172 0.23047-0.35156 0.59766-0.22656 0.92188 0.125 0.32812 0.4375 0.53906 0.78906 0.53516 0.19922 0.007812 0.39844-0.058594 0.55078-0.1875zm71.531-10.5c0-0.22266-0.085938-0.43359-0.24219-0.58984s-0.37109-0.24219-0.58984-0.24219h-7.125c-0.46094 0-0.83594 0.37109-0.83594 0.83203s0.375 0.83203 0.83594 0.83203h7.0938c0.22656 0.011719 0.44531-0.074219 0.60938-0.23047 0.16016-0.15625 0.25391-0.375 0.25391-0.60156zm-7.375-4.7695 5.0508-4.5c0.34375-0.30859 0.37109-0.83594 0.0625-1.1797-0.30469-0.33984-0.83203-0.36719-1.1758-0.0625l-5.043 4.5c-0.25781 0.23047-0.35156 0.59766-0.22656 0.92188 0.12109 0.32422 0.43359 0.53906 0.78125 0.53906 0.19141-0.007813 0.37891-0.085938 0.51953-0.21875zm5.1133 15.207c0.15625-0.16797 0.23438-0.39453 0.21484-0.625-0.019531-0.22656-0.12891-0.4375-0.30859-0.58203l-5.0508-4.5c-0.34375-0.30469-0.86719-0.27734-1.1758 0.0625-0.14844 0.16406-0.22266 0.38281-0.20703 0.60156 0.011718 0.22266 0.11328 0.42969 0.27734 0.57422l5.043 4.5c0.14844 0.14062 0.34766 0.21875 0.55078 0.21875 0.23438 0.007812 0.46094-0.082031 0.625-0.25zm-20.812 23.293c0.27344-0.46094 0.58594-0.89453 0.9375-1.293h-0.13672 0.003907c-3.1914-0.44531-6.2344 1.4844-7.1875 4.5625l-2.7812 9.207c3.5781-3.7461 6.6602-7.9414 9.1641-12.477zm13.125 1.7305v-0.003907c-0.89844-2.332-3.0586-3.9414-5.5508-4.1328-2.4922-0.19531-4.875 1.0625-6.125 3.2266-2.875 5.0312-8.582 13.898-14.832 16.793-1.4844 0.73047-3.1094 1.1406-4.7617 1.1992-1.3281 0.003906-2.4961-0.87109-2.8633-2.1484-0.46094-1.3711 0.03125-2.8828 1.207-3.7266 2.3398-1.7227 4.3672-3.8398 5.9883-6.25 2.9062-4.168 1.832-8.332-0.73047-10.344h0.003907c-1.0625-0.86328-2.4297-1.2617-3.7891-1.1094-1.3594 0.15625-2.6016 0.85156-3.4414 1.9297-2.5508 3.0117-6.582 7.7188-9.2188 10.801v0.003907c0.35156 0.76953 0.53516 1.6094 0.53125 2.457v19.594c0 0.66016-0.10938 1.3125-0.32422 1.9375 2.8164 0.87109 5.7422 1.3203 8.6875 1.332 18.012 0 30.051-17.48 34.875-26.105v0.003907c0.92188-1.6797 1.0508-3.6797 0.34375-5.4609z"/>

    </g></svg>